<svg width="260" height="260" xmlns="http://www.w3.org/2000/svg">
 <!-- Created with Method Draw - http://github.com/duopixel/Method-Draw/ -->

 <g>
  <title>background</title>
  <rect x="-1" y="-1" width="262" height="262" id="canvas_background" fill="none"/>
  <g id="canvasGrid" display="none">
   <rect id="svg_2" width="100%" height="100%" x="0" y="0" stroke-width="0" fill="url(#gridpattern)"/>
  </g>
 </g>
 <g>
  <title>Layer 1</title>
  <path fill="#b2b2b2" stroke="#000" stroke-width="0" stroke-opacity="null" d="m1.760021,130.000012l0,0c0,-70.522454 57.686335,-127.692195 128.846049,-127.692195l0,0c34.17208,0 66.944572,13.453247 91.1079,37.400178c24.16332,23.946932 37.738115,56.425947 37.738115,90.292017l0,0c0,70.522437 -57.686327,127.692178 -128.846015,127.692178l0,0c-71.159714,0 -128.846049,-57.16975 -128.846049,-127.692178zm128.846049,-127.692195l0,255.384374m-128.846049,-127.692178l257.692064,0" id="svg_3"/>
  <text fill="#ffffff" stroke-width="0" x="112.897194" y="148.404025" id="svg_1" font-size="18" font-family="Helvetica, Arial, sans-serif" text-anchor="start" xml:space="preserve" transform="matrix(12.13554333272155,0,0,10.109195158278776,-1350.2523112464173,-1322.1478800855898) " stroke="#000" opacity="0.99">—</text>
 </g>
</svg>