<svg t="1611411625499" class="icon" viewBox="0 0 1024 1024" version="1.1" xmlns="http://www.w3.org/2000/svg" p-id="2694" width="128" height="128"><path d="M213.333333 85.248h426.666667L853.333333 298.666667v597.248a42.666667 42.666667 0 0 1-42.666666 42.666666H213.333333a42.666667 42.666667 0 0 1-42.666666-42.666666v-768a42.666667 42.666667 0 0 1 42.666666-42.666667zM682.666667 298.666667h128l-170.666667-170.666667v128c0 17.194667 25.472 42.666667 42.666667 42.666667z m-320 255.914666a21.333333 21.333333 0 1 0 0 42.666667h298.666666a21.333333 21.333333 0 1 0 0-42.666667h-298.666666z m0 128a21.333333 21.333333 0 1 0 0 42.666667h298.666666a21.333333 21.333333 0 1 0 0-42.666667h-298.666666z" p-id="2695"></path></svg>