<?xml version="1.0" standalone="no"?><!DOCTYPE svg PUBLIC "-//W3C//DTD SVG 1.1//EN" "http://www.w3.org/Graphics/SVG/1.1/DTD/svg11.dtd"><svg t="1610528016334" class="icon" viewBox="0 0 1024 1024" version="1.1" xmlns="http://www.w3.org/2000/svg" p-id="3895" xmlns:xlink="http://www.w3.org/1999/xlink" width="200" height="200"><defs><style type="text/css"></style></defs><path d="M512 691.456A180.16 180.16 0 1 0 332.8 512 179.648 179.648 0 0 0 512 691.456zM93.12 512c0-29.76 2.752-59.456 8.32-88.64a157.12 157.12 0 0 0 120.576-81.28 170.56 170.56 0 0 0 6.08-153.088 414.464 414.464 0 0 1 157.056-95.872 153.152 153.152 0 0 0 258.112 0 415.68 415.68 0 0 1 156.416 97.024 169.6 169.6 0 0 0 7.424 151.936 156.416 156.416 0 0 0 116.352 78.912 461.952 461.952 0 0 1-3.2 193.152 158.464 158.464 0 0 0-112.64 80.768 169.6 169.6 0 0 0-11.712 139.648 416.128 416.128 0 0 1-162.176 96.32 152.64 152.64 0 0 0-241.344 0 412.16 412.16 0 0 1-159.68-94.912 170.112 170.112 0 0 0-10.688-142.208 157.312 157.312 0 0 0-116.352-81.28A461.248 461.248 0 0 1 93.12 512z" p-id="3896"></path></svg>