<?xml version="1.0" standalone="no"?><!DOCTYPE svg PUBLIC "-//W3C//DTD SVG 1.1//EN" "http://www.w3.org/Graphics/SVG/1.1/DTD/svg11.dtd"><svg t="1603941567898" class="icon" viewBox="0 0 1024 1024" version="1.1" xmlns="http://www.w3.org/2000/svg" p-id="2903" xmlns:xlink="http://www.w3.org/1999/xlink" width="200" height="200"><defs><style type="text/css"></style></defs><path d="M761.906 443.743c4.075-23.209 26.193-38.72 49.402-34.646 23.21 4.075 38.721 26.193 34.646 49.402C825.75 573.584 723.823 721.972 540.66 908.62c-16.725 17.043-44.18 17.043-60.905 0-205.386-209.293-309.088-370.672-309.088-491.875 0-183.302 152.278-331.41 339.54-331.41 136.446 0 258.175 79.33 311.633 199.64 9.569 21.535-0.132 46.748-21.666 56.316-21.534 9.569-46.747-0.132-56.316-21.666-39.78-89.528-130.972-148.957-233.65-148.957C369.55 170.667 256 281.109 256 416.744c0 86.412 84.168 222.13 254.208 400.62C662.761 657.25 746.527 531.34 761.906 443.745zM510.207 574.91c-88.886 0-161.416-70.544-161.416-158.165 0-87.62 72.53-158.164 161.416-158.164 88.887 0 161.417 70.543 161.417 158.164 0 87.621-72.53 158.165-161.417 158.165z m0-85.334c42.28 0 76.083-32.877 76.083-72.83 0-39.955-33.802-72.832-76.083-72.832-42.28 0-76.083 32.877-76.083 72.831s33.803 72.831 76.083 72.831z" p-id="2904"></path></svg>