<svg class="icon" style="width: 1em; height: 1em;vertical-align: middle;fill: currentColor;overflow: hidden;" viewBox="0 0 1024 1024" version="1.1" xmlns="http://www.w3.org/2000/svg" p-id="4967"><path d="M845.7 476.5c-1.5-1.2-3-2-4.7-2.7-1-5.6-6.4-10.3-13.9-9.2-26.4 3.9-52.7 7.7-79.1 11.6-25.4 3.7-51 8.4-76.8 8.9-23.6 0.5-47.9-2-71.5-0.8-1.1-0.2-2.3-0.4-3.6-0.3-20.4 1.9-40.7 4.6-60.8 8-1.1-0.8-2.4-1.3-3.9-1.5 0-1.8-0.3-3.6-1-5.3 0.9-6.3-2.3-12.8-10.5-11.9-59.5 6.7-118.6 16.6-177 29.9-1.6-0.4-3.3-0.6-5.3-0.3-26.9 3.9-53.9 5.4-81.1 4.9-2.1 0-3.8 0.4-5.3 1.2-1.7-1.2-3.7-2-5.8-2l-66.6-1.2c-1.9 0-3.5 0.3-4.9 1l-6 0.3c-3.1 4.6-8 7.9-14.8 8.6-1.2 1.5-2.6 2.8-4.3 3.9 0 2.6 1 5.2 3.5 7.4 14.1 12.2 30.8 17.1 49 19.7 18.8 2.7 39.8 3.1 56.1 14.1 7.6 5.2 13.6 10.9 23.3 11.6 10.9 0.8 21.1-4.7 31-8.7 1.6-0.7 3.3-1.3 4.9-2 9.2 0.5 18.3 0.9 27.5 1.1 1.3 1.3 3.1 2.4 5.5 3 61.3 15.8 126.3 7.6 181.7-22.9 1.4-0.7 2.4-1.7 3.2-2.7 2 0.8 4.3 1.2 6.8 0.8 9.6-1.4 18.8-3.5 27.9-6.3 2 0.8 4.3 0.9 6.9 0 11.9-4.3 24.1-8.7 36.7-11.2 0.6 0.5 1.2 1.1 1.8 1.5 19.6 12.8 42.2 18.9 65 17.8 14.8 3 29.8 5 45 6.3 6 0.5 11.5-5.6 11.3-11.3 0-0.9-0.1-1.9-0.1-2.8 28.9-3.1 56.9-11.9 82.4-26.3l5.8-0.9c6.9-1.1 16.7-1 22.4-5.6 8.4-6.6 7.4-19.2-0.7-25.7z" fill="#0431BC" p-id="4968"></path><path d="M839.6 444.9c-15.1-50.3-7.5-95.6-17.6-108.1-0.5-0.7-1-1.4-1.4-2.1-0.6 0-1.3 0.1-1.9 0.1-23.1 0-27.2-29.4-12.5-40-1.2-1.1-2.5-2.1-3.8-3-0.2-0.1-0.3-0.2-0.5-0.3-2.5-1.7-5.1-2-7.8-1.3-1.1 6.1-4.5 11.6-10.1 14.7-1.6 3.2-4.1 6.1-7.3 8-0.1 0.2-0.1 0.3-0.2 0.5 3.1 9.4 0.4 20.9-8.1 26.5-3.3 5.8-9.3 10-18 10-3.6 0-6.7-0.7-9.3-1.9-18.9 3.5-46.3 2.4-62.6-0.8-1.7 0.4-3.6 0.7-5.6 0.7-18.5 0-24.9-18.9-19-31.8-11-10.8-36-28-43.4-33-1.7-1.2-3.6-2.2-5.5-3-6-2.5-19.1-7-32.8-4.2 3 12.4-3.8 27.6-20.3 27.7-2.5 2.8-5.8 5-10 6 5.3 9.7 3.2 23.8-6.4 30.1-1.3 1.1-2.8 2-4.5 2.8-3.3 2.7-7.7 4.3-13.2 4.3-1 0-1.9-0.1-2.9-0.2-4 7.6-8.1 14.7-12.2 20.6C485 392.1 354.3 452.4 306.5 470c-34.5 12.7-83.4 20.2-107.9 23.3-10.3 1.3-20 5.2-28.4 11.3l-14.6 10.6 699.1-20.1c0 0.1 0 0.1-15.1-50.2z m-271.6-67c-28.2 0-28.1-43.7 0-43.7 28.2-0.1 28.2 43.7 0 43.7z" fill="#0431BC" p-id="4969"></path><path d="M155.6 520.3c-2.1 0-4.1-1.4-4.8-3.4-0.7-2.1 0-4.4 1.8-5.7l14.6-10.6c9-6.6 19.6-10.8 30.7-12.2 25.4-3.3 73.1-10.7 106.8-23.1 49.4-18.2 177.5-78 193.8-101.3 4.4-6.3 8.7-14.1 11.9-20.1 1-1.8 3-2.8 5-2.6 0.7 0.1 1.5 0.1 2.3 0.1 4 0 7.4-1.1 10.1-3.2 0.3-0.3 0.7-0.5 1.1-0.7 1.2-0.5 2.3-1.2 3.3-2 0.1-0.1 0.3-0.2 0.4-0.3 7.6-5 8.7-16.4 4.8-23.4-0.7-1.4-0.8-3-0.2-4.4 0.6-1.4 1.9-2.5 3.4-2.9 3-0.7 5.5-2.2 7.4-4.5 0.9-1.1 2.3-1.7 3.8-1.7 5.2 0 9.4-2 12.3-5.6 3.3-4.2 4.5-10.3 3.1-15.9-0.3-1.3-0.1-2.7 0.7-3.9 0.7-1.1 1.9-2 3.2-2.2 14.8-3 28.8 1.6 35.7 4.5 2.2 0.9 4.3 2.1 6.4 3.5 7.5 5.1 32.9 22.5 44.1 33.6 1.5 1.5 1.9 3.7 1.1 5.7-2.6 5.7-2.1 13 1.2 18 2 3.1 5.9 6.7 13.3 6.7 1.5 0 3-0.2 4.4-0.5 0.7-0.2 1.4-0.2 2.2 0 15.5 3.1 42.4 4.2 60.7 0.8 1-0.2 2.1-0.1 3 0.4 2.1 1 4.6 1.5 7.2 1.5 7.7 0 11.7-4.1 13.7-7.5 0.4-0.7 1-1.3 1.6-1.7 6.1-4 8.7-12.8 6.1-20.6-0.4-1.1-0.3-2.3 0.1-3.4 0-0.1 0.2-0.4 0.2-0.5 0.4-1.1 1.1-1.8 2.1-2.4 2.3-1.4 4.1-3.4 5.5-6 0.5-0.9 1.2-1.6 2-2.1 4-2.2 6.6-6.2 7.6-11.3 0.4-2 1.8-3.5 3.8-4 4.2-1 8.2-0.3 11.8 2.1l0.3 0.2c1.6 1 3 2.1 4.5 3.5 1.1 1 1.8 2.5 1.7 4-0.1 1.5-0.8 2.9-2.1 3.8-5.7 4.1-8 12.5-5.6 20.1 1 3.2 4.6 10.8 15.2 10.8 0.5 0 1 0 1.6-0.1 1.9-0.1 3.8 0.8 4.7 2.5 0.4 0.6 0.7 1.1 1 1.5 5.7 7.1 6.6 20.6 7.8 39.2 1.3 19.8 2.9 44.4 10.7 70.6l15.1 50.3c0.4 1.5 0.2 3.1-0.7 4.4-0.9 1.3-2.4 2-3.9 2.1l-699.1 20.1c-0.4-0.2-0.4-0.2-0.5-0.2z m362.2-168.8c-3.1 5.8-7 12.6-11 18.3-19.4 27.7-156.6 89.5-198.5 104.9-34.6 12.8-83.2 20.3-109 23.6-9.4 1.2-18.4 4.8-26 10.4l-1.5 1.1L848 490.3l-13.2-44c-8.2-27.3-9.8-52.5-11.1-72.8-1-15.5-1.9-28.9-5.6-33.6l-0.1-0.1c-11.6-0.3-20.5-6.8-24-17.7-2.2-6.8-1.8-14 0.7-20.1-1.8 2.6-4.1 4.9-6.8 6.6-1.5 2.6-3.4 4.8-5.6 6.7 2.3 10.8-1.7 22.1-10.1 28.2-4.7 7.4-12.4 11.5-21.8 11.5-3.5 0-6.9-0.6-9.9-1.7-19.7 3.3-46 2.1-61.9-0.9-1.9 0.4-3.8 0.6-5.7 0.6-9.3 0-17-4-21.7-11.3-4.5-6.9-5.6-16.1-3.2-24.2-11.6-10.5-33.5-25.6-40.3-30.2-1.5-1-3.1-1.9-4.7-2.6-4.2-1.8-14.2-5.4-25.1-4.6 0.4 6.9-1.7 13.7-5.8 19-4.3 5.5-10.6 8.8-17.9 9.3-1.7 1.6-3.6 2.9-5.6 4 3.5 11.5-0.5 24.8-10.1 31.3-1.5 1.2-3.1 2.2-4.9 3.1-4.4 2.9-9.8 4.7-15.8 4.7zM798 295.1l-0.6 1.5c0.3-0.5 0.7-0.9 1-1.3-0.1-0.1-0.2-0.2-0.4-0.2z m-230 87.8c-17.2 0-26.2-13.5-26.2-26.9 0-6.9 2.3-13.4 6.5-18.3 4.8-5.6 11.6-8.6 19.7-8.6 17.2 0 26.2 13.5 26.2 26.9 0 6.9-2.3 13.4-6.5 18.3-4.8 5.6-11.6 8.6-19.7 8.6z m0-43.7c-11.1 0-16.1 8.5-16.1 16.8 0 8.4 5 16.8 16.1 16.8s16.1-8.5 16.1-16.8c0-8.4-4.9-16.8-16.1-16.8z" fill="#0431BC" p-id="4970"></path><path d="M288.5 514.9c-3.9 0-8.6-1-14-3.8-11.2-5.9-83.5-14.1-110.5-16.8-2.1-0.2-3.6-2-3.4-4.1 0.2-2.1 2.1-3.6 4.1-3.4 10.1 1 98.7 9.9 113.2 17.6 11.6 6.1 18.3 0.7 18.6 0.5l13.9-12.3c-6.8-1.3-16.4-3.5-22-6.8-8.9-5.3-8.7-13.5-7.3-17.2 0.7-1.9 2.9-2.9 4.9-2.2 1.9 0.7 2.9 2.9 2.2 4.9-0.2 0.7-1.3 4.8 4.1 8 6.5 3.8 21.8 6.4 27.1 7.1 1.5 0.2 2.7 1.2 3.1 2.6 0.4 1.4 0 3-1.1 3.9l-20 17.6c-0.1 0.3-4.9 4.4-12.9 4.4zM377 466.7l-16.6 10.9c-2.6 1.7-6 0.9-7.7-1.6l-17.4-26.6c-1.7-2.6-0.9-6 1.6-7.7l16.6-10.9c2.6-1.7 6-0.9 7.7 1.6l17.4 26.6c1.7 2.5 1 6-1.6 7.7z" fill="#FFFFFF" p-id="4971"></path><path d="M359.8 479c-5.8 0-11.5-2.8-14.9-8.1l-8.1-12.5c-2.6-4-3.5-8.7-2.5-13.4 1-4.7 3.7-8.7 7.7-11.3l2.5-1.6c8.2-5.4 19.3-3 24.6 5.2l8.1 12.5c2.6 4 3.5 8.7 2.5 13.4-1 4.7-3.7 8.7-7.7 11.3l-2.5 1.6c-3 1.9-6.3 2.9-9.7 2.9z m-5.7-42.2c-1.9 0-3.9 0.5-5.6 1.7l-2.5 1.6c-4.7 3.1-6.1 9.5-3 14.2l8.1 12.5c1.5 2.3 3.8 3.9 6.5 4.4 2.7 0.6 5.4 0.1 7.7-1.4l2.5-1.6c2.3-1.5 3.9-3.8 4.4-6.5 0.6-2.7 0.1-5.4-1.4-7.7l-8.1-12.5c-1.9-3-5.2-4.7-8.6-4.7z" fill="#0431BC" p-id="4972"></path><path d="M426 443.6l-16.8 11c-2.5 1.6-5.9 0.9-7.6-1.6L384 426.2c-1.6-2.5-0.9-5.9 1.6-7.6l16.8-11c2.5-1.6 5.9-0.9 7.6 1.6l17.5 26.8c1.7 2.6 1 6-1.5 7.6z" fill="#FFFFFF" p-id="4973"></path><path d="M408.6 456.1c-5.7 0-11.3-2.8-14.7-7.9l-8.5-13c-5.3-8.1-3-19 5.1-24.2l3-1.9c8.1-5.3 18.9-3 24.2 5.1l8.5 13c5.3 8.1 3 19-5.1 24.2l-3 1.9c-2.9 1.9-6.3 2.8-9.5 2.8z m-5.6-42.4c-1.9 0-3.8 0.5-5.4 1.6l-3 1.9c-4.6 3-5.9 9.2-2.9 13.8l8.5 13c3 4.6 9.2 5.9 13.8 2.9l3-1.9c4.6-3 5.9-9.2 2.9-13.8l-8.5-13c-1.9-2.9-5.1-4.5-8.4-4.5z" fill="#0431BC" p-id="4974"></path><path d="M472 415.8l-16.6 10.9c-2.6 1.7-6 0.9-7.7-1.6l-17.4-26.6c-1.7-2.6-0.9-6 1.6-7.7l16.6-10.9c2.6-1.7 6-0.9 7.7 1.6l17.4 26.6c1.7 2.5 1 6-1.6 7.7z" fill="#FFFFFF" p-id="4975"></path><path d="M454.9 428c-1.2 0-2.5-0.1-3.7-0.4-4.7-1-8.7-3.7-11.3-7.7l-8.1-12.5c-2.6-4-3.5-8.7-2.5-13.4 1-4.7 3.7-8.7 7.7-11.3l2.5-1.6c8.2-5.4 19.3-3 24.6 5.2l8.1 12.5c5.4 8.2 3 19.3-5.2 24.6l-2.5 1.6c-2.9 2.1-6.2 3-9.6 3z m-5.8-42.1c-1.9 0-3.9 0.5-5.6 1.7l-2.5 1.6c-2.3 1.5-3.9 3.8-4.4 6.5-0.6 2.7-0.1 5.4 1.4 7.7l8.1 12.5c1.5 2.3 3.8 3.9 6.5 4.4s5.4 0.1 7.7-1.4l2.5-1.6c2.3-1.5 3.9-3.8 4.4-6.5 0.6-2.7 0.1-5.4-1.4-7.7l-8.1-12.5c-1.9-3.1-5.2-4.7-8.6-4.7z" fill="#0431BC" p-id="4976"></path><path d="M381.1 498.9c-0.6 0-1.2-0.1-1.7-0.4l-66.5-33.4c-1.9-0.9-2.6-3.2-1.7-5.1 0.9-1.9 3.2-2.6 5.1-1.7l64.9 32.6 81.7-40.4c0.9-0.5 2-0.5 2.9-0.2l20 7.1v-18.2c0-1.2 0.5-2.3 1.5-3l72.3-56c1.6-1.3 4-1 5.3 0.7 1.3 1.6 1 4-0.7 5.3L493.4 441v21.7c0 1.2-0.6 2.4-1.6 3.1-1 0.7-2.3 0.9-3.4 0.5l-23.5-8.3-82 40.5c-0.7 0.3-1.2 0.4-1.8 0.4z" fill="#FFFFFF" p-id="4977"></path><path d="M381.1 496.4c-0.6 0-1.1-0.1-1.6-0.4l-69.1-33.4c-1.9-0.9-2.7-3.2-1.8-5 0.9-1.9 3.2-2.7 5-1.8l69.1 33.4c1.9 0.9 2.7 3.2 1.8 5-0.7 1.4-2 2.2-3.4 2.2zM521 378.4l-15.5 12.5c-2.4 1.9-5.9 1.6-7.8-0.8l-20-24.7c-1.9-2.4-1.6-5.9 0.8-7.8L494 345c2.4-1.9 5.9-1.6 7.8 0.8l20 24.7c1.9 2.5 1.6 6-0.8 7.9z" fill="#FFFFFF" p-id="4978"></path><path d="M503.3 392.5c-0.6 0-1.3 0-1.9-0.1-4.7-0.5-9-2.8-12-6.5l-9.4-11.6c-3-3.7-4.3-8.3-3.8-13.1 0.5-4.7 2.8-9 6.5-12l2.3-1.9c7.6-6.2 18.9-5 25 2.7l9.4 11.6c3 3.7 4.3 8.3 3.8 13.1-0.5 4.7-2.8 9-6.5 12l-2.3 1.9c-3.1 2.5-7 3.9-11.1 3.9z m-7.1-41.5c-2.3 0-4.5 0.7-6.4 2.3l-2.3 1.9c-2.1 1.7-3.5 4.2-3.7 6.9-0.3 2.7 0.5 5.4 2.2 7.5l9.4 11.6c1.7 2.1 4.2 3.4 6.9 3.7 2.7 0.3 5.4-0.5 7.5-2.2l2.3-1.9c2.1-1.7 3.4-4.2 3.7-6.9 0.3-2.7-0.5-5.4-2.2-7.5l-9.4-11.6c-2-2.5-5-3.8-8-3.8z" fill="#0431BC" p-id="4979"></path><path d="M336.7 564.3c-1.4 0-2.8-0.8-3.5-2.2-0.8-1.9 0-4.1 1.9-5 17.4-7.7 37.2-48.4 43.3-63.4 0.8-1.9 3-2.9 4.9-2.1 1.9 0.8 2.9 3 2.1 4.9-0.9 2.3-23.5 56.9-47.2 67.4-0.5 0.3-1 0.4-1.5 0.4z" fill="#FFFFFF" p-id="4980"></path><path d="M842.2 437.3c-15.1-50.3-7.5-95.6-17.6-108.1-3.5-4.4-4.6-10.3-4.5-16.1 0.2-11.6-5.5-22.5-15.2-28.9-0.2-0.1-0.3-0.2-0.5-0.3-15.1-10.1-35.2 27.7-40.2 45.3-5 17.6-75.4 15.1-93 7.5-17.6-7.5-5-12.6-10.1-22.6-4.4-8.7-39.2-32.7-48.2-38.8-1.7-1.2-3.6-2.2-5.5-3-8.1-3.4-29.1-10.3-46.9 1.6-19.1 12.7-32.8 46.8-47.2 72.3 22.8 3.6 45 21.3 58.7 37.7 3.7 4.5 6.5 4.4 8.2 9.7 5.7 1.7 11 9.6 15.3 13.8 2.7 2.7 5.5 5.3 8.4 7.8-1.4-1.4 6.1 4.4 7.3 5.1 1.7 1 3.5 2 5.3 2.9 0.2 0.1 0.4 0.1 0.6 0.2 1.5 0.4 14.2 2.8 6.7 2 3.3 0.3 6.4 1 9.4 1.9 1.3-0.1 2.7-0.2 4-0.2 6.8-0.1 13.1 1.8 18.4 5.1 11-6.3 25.5-6.6 36.6-0.2 1.3 0.7 7.9 3.8 6.6 3.4 1.7 0.7 3.5 1.3 5.2 2 7.6 2.9 15.2 5.9 22.6 9.2 14.4 6.5 27.5 16.2 35.5 30.1 2.5 4.4 4 9 4.5 13.6l90.7-2.6c-0.1-0.1-0.1-0.1-15.1-50.4z" fill="#EF3B0A" p-id="4981"></path><path d="M566.7 384.4l-2-7.3 22.3-6c11.5-5.3 18.5-14.1 18.7-23.7 0.2-9.5-6-18.2-17-23.8l-56.4-30 3.5-6.7 56.3 30c13.5 6.9 21.4 18.4 21.1 30.7-0.3 12.6-9.1 24-23.4 30.5l-0.6 0.2-22.5 6.1zM551.7 278.1c29.3 0.6 46.8 27 67.5 43.8 13.1 10.7 34.7 23.6 51.5 13.4 4.1-2.5 0.4-9-3.8-6.5-22.6 13.7-51-20.3-65.4-33.6-14.1-13.1-30-24.2-49.8-24.6-4.9-0.1-4.9 7.4 0 7.5z" fill="#FFFFFF" p-id="4982"></path><path d="M560.3 336.4l-12.7 15.3c-2 2.4-5.5 2.7-7.9 0.7L515.3 332c-2.4-2-2.7-5.5-0.7-7.9l12.7-15.3c2-2.4 5.5-2.7 7.9-0.7l24.4 20.4c2.4 2 2.7 5.5 0.7 7.9z" fill="#FFFFFF" p-id="4983"></path><path d="M542.2 354c-4 0-8.1-1.4-11.4-4.1l-11.4-9.5c-3.6-3-5.9-7.3-6.3-12.1-0.4-4.7 1-9.4 4-13l1.9-2.3c6.3-7.5 17.5-8.6 25.1-2.3l11.4 9.5c3.6 3 5.9 7.3 6.3 12.1 0.4 4.7-1 9.4-4 13l-1.9 2.3c-3.5 4.2-8.6 6.4-13.7 6.4z m-9.5-39.9c-2.9 0-5.9 1.3-7.9 3.7l-1.9 2.3c-1.7 2.1-2.6 4.8-2.3 7.5 0.2 2.7 1.5 5.2 3.6 7l11.4 9.5c4.3 3.6 10.8 3 14.5-1.3l1.9-2.3c1.7-2.1 2.6-4.8 2.3-7.5-0.2-2.7-1.5-5.2-3.6-7l-11.4-9.5c-1.9-1.6-4.3-2.4-6.6-2.4z" fill="#0431BC" p-id="4984"></path><path d="M774.3 491.2c-1.1 4.9-2.2 9.7-3.3 14.6-0.9 3.9 3.4 5.9 6.3 3.7 6.2-4.8 12.3-9.6 18.5-14.4-2.1-0.9-4.3-1.8-6.4-2.7-0.1 0.4-0.3 0.8-0.4 1.1l4.8 3.6c0-2.6 0-5.2-0.1-7.9 0-4.5-5.9-4.8-7.4-1-1 1.2-2.1 2.4-3.1 3.6-3.5 2.2-1.3 8.5 2.9 6.9 7.6-2.9 15.2-5.8 22.9-8.6-1.2-2.1-2.4-4.2-3.7-6.3-7.3 5.7-15.2 8.3-24.3 8.4 0.6 2.3 1.3 4.7 1.9 7 7.8-5.3 16-8.7 25.2-10.6-1.4-1.8-2.8-3.7-4.3-5.5-6 8.4-13.3 14.1-22.6 18.3 1.3 2.2 2.5 4.3 3.8 6.5 11.3-7 23.3-11.4 36.5-13.4-1-2.3-1.9-4.6-2.9-6.9-10.2 7.1-21.1 12.3-33.1 15.6 1 2.3 1.9 4.6 2.9 6.9 10.8-5.5 21.8-9.6 33.4-12.7-1-2.3-1.9-4.6-2.9-6.9-9.2 4.7-18.6 7.7-28.7 9.4 1 2.3 1.9 4.6 2.9 6.9 8.1-5.3 16.4-8.7 25.9-10.5-1-2.3-1.9-4.6-2.9-6.9-4 2.6-8 5.1-12 7.7 1.5 2 3 3.9 4.6 5.9 8.8-7.4 18.5-11.7 29.8-13.6-1-2.3-1.9-4.6-2.9-6.9-6.2 4.4-12.5 8.2-19.3 11.5 1.3 2.2 2.5 4.3 3.8 6.5 6.9-5.1 14-8.2 22.3-10-1-2.3-1.9-4.6-2.9-6.9-18.2 10.6-40.7 8.1-57.5 21.8 2 0.3 3.9 0.5 5.9 0.8-0.4-4.2-0.8-8.3-1.3-12.5-2.3-0.6-4.7-1.3-7-1.9-0.6 2.3-1.1 4.7-1.7 7l6.9-0.9c-2.3-3.4-4-6.5-5.6-10.2-1.3-3-6.3-2.1-6.9 0.9-1.1 5.2-1.5 9.8-1.3 15.1h7.5c-0.6-5.3-1.1-10.6-1.7-15.9-0.5-4.7-7.6-5-7.5 0 0.1 8.3-0.4 16.2-1.8 24.4-0.5 2.8 2.6 6.4 5.5 4.3 1.6-1.1 3.1-2.3 4.7-3.4-1.8-1.4-3.7-2.8-5.5-4.3-1.2 2.6-2.5 5.1-3.7 7.7-2.9 2.9 1 8.5 4.6 5.9 14-10 29.1-16.9 45.9-20.7-1-2.3-1.9-4.6-2.9-6.9-4.1 2.6-8.3 5.3-12.4 7.9-3.4 2.2-1.3 8.4 2.9 6.9 11-4 21.9-7.9 32.9-11.9 4.5-1.6 2.6-8.9-2-7.3-11 4-21.9 7.9-32.9 11.9 1 2.3 1.9 4.6 2.9 6.9 4.1-2.6 8.3-5.3 12.4-7.9 3.6-2.3 1.3-7.9-2.9-6.9-17.4 4-33.2 11.1-47.7 21.5 1.5 2 3 3.9 4.6 5.9 3.4-3.5 4.9-6.3 5.7-11 0.4-2.8-2.6-6.4-5.5-4.3-1.6 1.1-3.1 2.3-4.7 3.4 1.8 1.4 3.7 2.8 5.5 4.3 1.5-8.8 2.2-17.5 2-26.4h-7.5c0.6 5.3 1.1 10.6 1.7 15.9 0.5 4.7 7.8 4.9 7.5 0-0.5-4.4-0.2-8.8 1-13.1l-6.9 0.9c1.6 3.7 3.3 6.9 5.6 10.2 1.9 2.9 5.7 2.1 6.9-0.9 1.9-4.7 1.7-3.9 1.9-9 0.2-3.6-5.5-5.4-7-1.9-3.1 7.2-2.9 13.4 1.3 20.1 1.4 2.2 4 2.3 5.9 0.8 15.9-12.9 38.6-10.4 56-20.6 3.8-2.2 1.2-7.7-2.9-6.9-9.2 1.9-16.6 5.2-24.1 10.7-3.9 2.9-0.6 8.6 3.8 6.5 6.9-3.3 13.2-7 19.3-11.5 3.5-2.5 1.4-7.6-2.9-6.9-12.6 2.2-23.3 7.3-33.1 15.6-3.3 2.8 1 8.2 4.6 5.9 4-2.6 8-5.1 12-7.7 3.7-2.4 1.3-7.7-2.9-6.9-10.2 1.9-19.1 5.6-27.7 11.3-3.7 2.4-1.3 7.6 2.9 6.9 10.9-1.8 20.8-5.1 30.5-10.1 3.9-2 1.2-8-2.9-6.9-12.3 3.2-23.9 7.7-35.2 13.5-3.9 2-1.2 8 2.9 6.9 12.7-3.5 24.1-8.8 34.9-16.3 3.6-2.5 1.3-7.5-2.9-6.9-13.8 2.1-26.4 6.7-38.3 14.1-4.2 2.6-0.5 8.5 3.8 6.5 10.6-4.7 18.6-11.5 25.4-21 2.1-2.9-1.3-6.1-4.3-5.5-10 2-18.6 5.7-27.1 11.4-3 2-2 7.1 1.9 7 11.3-0.1 20.8-3.6 29.7-10.6 2.9-2.3-0.2-7.6-3.7-6.3-7.6 2.9-15.2 5.8-22.9 8.6 1 2.3 1.9 4.6 2.9 6.9 3.5-2.2 5.1-4.3 6.6-8.1-2.5-0.3-4.9-0.7-7.4-1 0 2.6 0 5.2 0.1 7.9 0 2.3 2.4 4.4 4.8 3.6 4.2-1.4 6.3-3.8 5.9-8.4-0.3-3.5-3.8-4.7-6.4-2.7-6.2 4.8-12.3 9.6-18.5 14.4 2.1 1.2 4.2 2.4 6.3 3.7 1.1-4.9 2.2-9.7 3.3-14.6 0.9-4.8-6.3-6.8-7.4-2.1z" fill="#EF3B0A" p-id="4985"></path><path d="M835.5 492.9c5.2 3.6 10.3 6.1 16.2 8.1 3.4 1.1 5.5-2.8 4.3-5.5-0.7-2.4-1.5-4.8-2.2-7.1-2.1 1.2-4.2 2.4-6.3 3.7 0.9 1.1 1.8 2.2 2.6 3.3 2.1-1.2 4.2-2.4 6.3-3.7-1-1.6-1.9-3.2-2.9-4.9-0.4-2.6-3.6-3.2-5.5-2.3-23.9 11.4-49.6 17.2-75.3 22.9-4.8 1.1-2.7 8 2 7.3 19.5-3 38.5-7.4 57.3-13.4-0.7-2.4-1.3-4.9-2-7.3-17.5 6.9-35.1 13.7-52.6 20.6-4.4 1.7-2.8 8.6 2 7.3 21.1-5.6 42-12.1 62.6-19.5 4.5-1.6 2.8-8.5-2-7.3-19.5 4.9-38.8 10.5-57.9 16.8 1 2.3 1.9 4.6 2.9 6.9 18.1-8.6 36.3-17.3 54.4-25.9 4.4-2.1 0.6-8.6-3.8-6.5-18.1 8.6-36.3 17.3-54.4 25.9-3.8 1.8-1.1 8.2 2.9 6.9 19.1-6.3 38.4-11.9 57.9-16.8-0.7-2.4-1.3-4.9-2-7.3-20.6 7.4-41.5 13.8-62.6 19.5 0.7 2.4 1.3 4.9 2 7.3 17.5-6.9 35.1-13.7 52.6-20.6 4.4-1.7 2.7-8.8-2-7.3-18.8 6-37.8 10.4-57.3 13.4 0.7 2.4 1.3 4.9 2 7.3 26.4-5.8 52.6-12 77.1-23.7-1.8-0.8-3.7-1.5-5.5-2.3 0.6 3.7 1.9 5.9 4.8 8.2 2.6 2 7.8 0.3 6.3-3.7-1.4-3.7-1.5-4.1-4.6-6.6-2.9-2.4-7.1-0.2-6.3 3.7 1 4.7 1 4.6 3 8.9 1.4-1.8 2.8-3.7 4.3-5.5-5.7-1.9-9.6-4-14.4-7.3-4.1-2.8-7.9 3.8-3.9 6.5z" fill="#EF3B0A" p-id="4986"></path><path d="M689.6 433.4c19.2 10.1 40 19 58.1 30.9 23 15.1 14.2 41.5 11 64.5-0.7 4.7 6.6 6.8 7.3 2 2.7-19.5 11.3-46.3-2.7-63.2-6.7-8.1-16.7-12.7-25.8-17.5-14.7-7.7-29.4-15.5-44.1-23.2-4.3-2.3-8.1 4.3-3.8 6.5zM772.6 421.4c-0.1-3.1-2-6.1-3.9-6.2-2.4-0.1-4.7 2.9-4.8 6.1 0 2.3 2 4 4.8 4.1 2.2 0 3.9-1.7 3.9-4zM843.4 493.8c-0.5-3.1-2.7-5.7-4.7-5.4-2.5 0.3-4.8 3.6-4.4 6.5 0.3 2.2 3.2 4.1 5.9 3.7 2-0.2 3.5-2.5 3.2-4.8zM851.1 472.4c-2.2 0.6-3.7 3-3.5 5.7 0.2 2.6 2.2 4.8 4.2 4.9-0.3-3.5-0.5-7-0.7-10.6zM833.5 462.1c0.1 3.4 1.9 5.8 4.3 5.7 2.3-0.2 4.4-3.1 4.2-5.9-0.2-2.6-2.3-4.9-4.5-4.8-2.3 0-4.1 2.3-4 5zM829.1 479.5c0-3-2.1-5.8-4.2-5.7-2.6 0.1-4.9 3-4.8 6 0.1 2.1 2.1 3.6 5.1 3.7 2.2 0 3.9-1.7 3.9-4zM849.5 442.3c-2.2 0.5-3.5 2.3-3.2 4.7 0.3 2.6 1.8 4.7 3.7 4.9-0.2-3.1-0.3-6.3-0.5-9.6zM755.1 441.2c2.5-0.4 4.5-2.8 4.6-5.5 0.1-2.5-1.8-4.3-4.5-4.2-2.3 0-3.7 1.7-3.6 4.3 0.1 3.3 1.6 5.7 3.5 5.4zM835.8 437.3c2.3 0.1 5-2.6 5-4.9-0.1-2.1-2.4-4.5-4.6-4.6-2-0.1-4 1.9-4 4-0.2 2.6 1.7 5.3 3.6 5.5zM803.7 402.7c-0.2 2.5 1.8 4.9 4.1 5 2.6 0.1 5.2-2.9 5-5.8-0.1-1.6-2.9-3.1-5.6-3-1.8 0-3.4 1.7-3.5 3.8zM807.8 495c0.1 2.5 1.6 4 4 3.9 2.9-0.1 4.8-2.1 4.6-5-0.2-2.4-2.3-4.2-4.8-4.1-2.4 0.3-3.9 2.4-3.8 5.2zM819.6 447.4c0 3.3 1.3 5.4 3.4 5.5 2.4 0.1 4.7-2.6 4.5-5.3-0.1-2.4-2.3-4.6-4.5-4.6-2.1 0-3.4 1.7-3.4 4.4zM614.9 412.5c0.1 2.1 1.5 3.2 3.8 3.1 3-0.1 4.5-1.8 4.2-4.5-0.3-3.1-2.1-5.2-4.2-4.8-2.3 0.4-3.9 2.9-3.8 6.2zM847.7 412.2c-1.6 0.9-2.9 2.6-3 4.2-0.1 1.8 1.6 3.6 3.6 4.3-0.1-2.8-0.3-5.7-0.6-8.5z" fill="#FFFFFF" p-id="4987"></path><path d="M697 438.2c2.8 0.3 5.6 0.7 8.3 1.3 0.2-0.5 0.3-1 0.2-1.5-0.2-2.4-3-4.9-5.2-4.7-2 0.3-3.6 2.5-3.3 4.7-0.1 0.2 0 0.2 0 0.2zM793.5 480c-0.1 2.1 1.7 4.1 3.9 4.3 2.3 0.1 4.5-1.8 4.7-4.3 0.2-2.1-1.5-4.5-3.5-4.8-2.3-0.3-4.9 2.1-5.1 4.8zM799.8 419.8c0.1-3.1-1.8-5.4-4.3-5.6-1.9-0.1-3.7 1.9-3.9 4.2-0.2 2.6 1.9 5.2 4.5 5.5 2 0.2 3.6-1.5 3.7-4.1zM780.4 496.1c0.5 2.4 3.4 4.3 5.9 3.8 2-0.4 3.2-2.2 2.9-4.3-0.5-3.2-2.2-5.3-4.2-5-2.6 0.5-5 3.3-4.6 5.5zM786.8 435.9c-0.5-3.3-2.5-6.1-4.4-6-2.2 0.1-4.2 3.2-3.9 6 0.2 2.4 2.9 4 5.8 3.7 1.6-0.1 2.8-1.9 2.5-3.7zM766.6 480.6c-0.2 2.5 2.2 5 4.8 4.9 2.1-0.1 3.7-1.9 3.8-4.2 0.1-2.5-1.8-5-4-5-2.1-0.1-4.4 2-4.6 4.3zM642.9 407.6c-0.4 0.7-0.7 1.6-0.7 2.5 0 2.5 1.9 4.7 4.3 4.8 1.9 0.1 3.5-1.8 3.9-4.3-2.6-1-5.1-2-7.5-3zM717.5 419.4c-2.2 0.1-4.4 0.2-6.7 0.2-0.8 1-1.3 2.2-1.2 3.2 0.3 2.1 2.9 4 5.3 3.7 2.2-0.2 3.6-2.2 3.2-4.7-0.1-0.9-0.3-1.7-0.6-2.4zM773 453c1-1.6 1.2-3.2 0.2-4.9-1-1.8-2.9-2.5-4.7-1.6-1.5 0.7-2.7 1.8-2.6 4.1 0.2 1.8 0.5 3.8 2 5.2 1 0.8 3.8-0.8 5.1-2.8zM806 465c0.2 1.7 2.8 3.5 5.3 3.6 1.9 0.1 3.3-1.5 3.3-3.7 0-3-1.6-5.4-3.6-5.5-2.5-0.3-5.3 3-5 5.6zM635.2 430.5c1.2-0.5 2-1.5 2-2.7 0.1-3.5-2-7-4-6.7-2.3 0.4-3.9 2.9-3.8 6 0 0.7 0.2 1.3 0.4 1.9 1.8 0.4 3.6 1 5.4 1.5zM831 402c0 2.4 2.2 4.4 4.6 4.3 2.2-0.1 3.9-1.9 3.9-4.2 0-2.6-2-5-4.2-4.9-2.1 0.1-4.3 2.4-4.3 4.8zM780 465.6c0.1 2.4 2 4.8 3.5 4.6 2.2-0.4 4.6-3.3 4.5-5.6-0.1-2.1-2.2-4.1-4.1-4-2 0-4 2.5-3.9 5zM826.8 417.6c0.2-1.8-2.9-4.1-5.7-4.3-1.3-0.1-2.8 1.6-3 3.5-0.2 2.8 1.4 5.4 3.5 5.7 2.2 0.3 5-2.3 5.2-4.9zM805.8 433.8c0.3 2.8 2.2 4.8 4.4 4.6 1.9-0.2 3.6-2.4 3.5-4.6-0.1-2.5-2.8-5.1-5-5-1.8 0-3.1 2.4-2.9 5zM742.7 416.9l-4.2 0.6c-0.9 1-1.5 2.6-1.3 4.4 0.2 2.3 1.5 3.7 3.5 3.8 3 0 5-2 4.8-4.9-0.1-1.7-1.3-3.2-2.8-3.9zM600.4 398.1c0.2 1.7 2 2.8 4.3 2.6 2.6-0.2 4.1-2.1 3.9-4.9-0.2-2.7-2.3-4.5-4.7-4.1-2 0.3-3.9 3.6-3.5 6.4zM724.2 436.7c0 2.6 1.9 4.5 4.5 4.5 2.1 0.1 3.8-1.3 3.9-3.1 0.2-2.8-2-6-4-6-2.5 0.1-4.4 2-4.4 4.6zM742.9 456.1c2.4 0.1 4-1.5 4-3.9 0-3-2.1-5.3-4.6-5.2-2.2 0.1-3.7 1.9-3.6 4.4 0 2.8 1.6 4.6 4.2 4.7zM761.2 466.6c0-2.8-2.4-5.1-4.9-4.7-2.1 0.3-3.6 2.3-3.5 4.6 0.2 2.7 2 4.4 4.5 4.3 2.3-0.1 3.9-1.8 3.9-4.2zM688 428c1.9-0.4 3.8-3 3.4-4.7-0.4-2-3.9-4.7-5.6-4.5-1.7 0.3-3.1 3-2.7 5.2 0.5 2.5 2.8 4.4 4.9 4zM792.7 449.8c0 2 2.2 3.9 4.9 4.3 1.6 0.2 3-1.3 3-3.2 0-3.3-1.7-6.1-3.9-6.2-1.9-0.1-4 2.5-4 5.1zM673.7 443.3c1.4-0.9 2.9-1.7 4.4-2.4 0.2-0.6 0.3-1.2 0.3-1.8-0.2-2.4-2.5-4.8-4.4-4.6-1.9 0.2-3.3 2.5-3.1 4.9 0.1 2 1.2 3.4 2.8 3.9zM660.5 420.1c-1.8 0-3.8 2.2-4 4.3-0.2 2.5 1.7 4.5 4.3 4.5 2 0 3.4-1.4 3.5-3.6 0.2-2.6-1.7-5.2-3.8-5.2zM587 382.4c0 1.9 1.3 3.3 3 3.2 2.5-0.1 4.2-2.2 4.1-4.8-0.1-2.1-1.7-3.9-3.5-3.8-2 0.2-3.6 2.4-3.6 5.4z" fill="#FFFFFF" p-id="4988"></path><path d="M783 373.1c-0.5-3.1-2.7-5.7-4.7-5.4-2.5 0.3-4.8 3.6-4.4 6.5 0.3 2.2 3.2 4.1 5.9 3.7 2-0.2 3.6-2.5 3.2-4.8zM810.5 372.2c0-3.4-2-5.7-5-5.6-2.3 0.1-4 2.3-3.8 5 0.2 2.9 2.3 5.2 4.7 5.3 2.3 0.1 4.1-1.9 4.1-4.7zM795.9 355.8c-0.2-2.8-2.1-4.5-4.6-4.3-2.5 0.3-4.3 2.9-4 5.8 0.2 2.6 2.3 4.9 4.4 4.9 2.5 0 4.4-2.9 4.2-6.4zM808.5 337.9c-0.8-1.6-2.2-1.5-3.5-1.4-2.3 0.1-2.9 0.3-3.8 1.1-1.7 1.5-1.8 4.7-0.3 6.8 1.5 2 4.3 2.2 6 0.4 1.7-1.8 2.5-5.2 1.6-6.9zM773.1 341.4c0.1 3.4 1.9 5.8 4.3 5.7 2.3-0.2 4.4-3.1 4.2-5.9-0.2-2.6-2.3-4.9-4.5-4.8-2.2 0-4 2.2-4 5zM768.7 358.8c0-3-2.1-5.8-4.2-5.7-2.6 0.1-4.9 3-4.8 6 0.1 2.1 2.1 3.6 5.1 3.7 2.2 0 3.9-1.8 3.9-4zM660.8 362.1c0-2.8-1.3-4.4-3.5-4.6-2.7-0.2-4.8 1.8-4.9 4.8-0.1 2.9 1.9 5.5 4.4 5.6 2.3 0.1 4-2.5 4-5.8zM789.3 321.6c-2.3 0.4-3.6 2.3-3.4 4.7 0.3 2.9 2.2 5.1 4.3 5 2.5-0.2 4.5-2.7 4.4-5.6-0.1-2.9-2.3-4.6-5.3-4.1zM648 380.2c0-3-2.3-6.7-4.3-6.6-2.2 0.1-4.2 2.6-4.5 5.6-0.2 2.4 1.6 4.2 4.4 4.4 2.4 0.1 4.4-1.4 4.4-3.4zM665 347c0.1 2.7 2.1 4.9 4.4 4.7 2.5-0.2 4.7-3.3 4.6-6.4-0.1-1.9-2.7-3.3-5.5-3.1-2 0.2-3.5 2.3-3.5 4.8zM638.2 348.1c0.2 2.9 1.9 4.7 4.3 4.6 2.5-0.2 4.2-2.5 4.2-5.6-0.1-2.8-1.8-4.6-4.3-4.4-2.8 0.1-4.4 2.2-4.2 5.4zM775.4 316.5c2.3 0.1 5-2.6 5-4.9-0.1-2.1-2.4-4.5-4.6-4.6-2-0.1-4 1.9-4 4-0.1 2.7 1.7 5.4 3.6 5.5zM670.7 372.5c-2.1 0.1-4 2.7-3.8 5.2 0.2 2.4 2.3 4.5 4.6 4.6 2.1 0.1 3.7-1.8 3.6-4.3-0.1-3.1-2-5.6-4.4-5.5zM633.6 364.6c0-3.1-2-5.9-4.2-5.8-2.6 0.1-4.8 3-4.7 6.2 0.1 2 1.9 3.3 4.6 3.2 2.7 0.1 4.3-1.3 4.3-3.6zM747.4 374.3c0.1 2.5 1.6 4 4 3.9 2.9-0.1 4.8-2.1 4.6-5-0.2-2.4-2.3-4.2-4.8-4.1-2.3 0.3-3.9 2.4-3.8 5.2zM798.8 310.6c0.4 2.7 2.8 4.6 5.6 4.4 2-0.2 3.5-2 3.2-3.9-0.6-3.2-2.7-5.7-4.8-5.5-2.5 0.3-4.4 2.7-4 5zM759.3 326.7c0 3.3 1.3 5.4 3.4 5.5 2.4 0.1 4.7-2.6 4.5-5.3-0.1-2.4-2.3-4.6-4.5-4.6-2.1 0-3.4 1.7-3.4 4.4zM679 361.3c0 2.4 2.1 4.8 4.4 4.8 2.4 0 4.5-2.5 4.7-5.4 0.1-1.9-3.2-3.9-5.8-3.7-1.6 0.1-3.2 2.3-3.3 4.3zM554.6 291.8c0.1 2.1 1.5 3.2 3.8 3.1 3-0.1 4.5-1.8 4.2-4.5-0.3-3.1-2.1-5.2-4.2-4.8-2.4 0.4-3.9 2.9-3.8 6.2zM789.6 290.8c-0.3 0-0.6 0-0.9 0.1-1 0.6-1.9 1.2-2.9 1.8-0.8 0.9-1.4 1.9-1.4 3-0.1 2.1 2.2 4.3 4.7 4.5 2.4 0.2 4.3-1.6 4.1-3.7-0.3-2.9-2-5.7-3.6-5.7zM733.2 359.3c-0.1 2.1 1.7 4.1 3.9 4.3 2.3 0.1 4.5-1.8 4.7-4.3 0.2-2.1-1.5-4.5-3.5-4.8-2.4-0.3-5 2.1-5.1 4.8zM720.1 375.4c0.5 2.4 3.4 4.3 5.9 3.8 2-0.4 3.2-2.2 2.9-4.3-0.5-3.2-2.2-5.3-4.2-5-2.7 0.5-5.1 3.3-4.6 5.5zM585.1 380.6c0 2.2 2.3 4.4 4.6 4.4 2.1 0 4-2 3.9-4.1-0.1-2.3-1.8-4.9-3.4-5-2.3-0.2-5 2.3-5.1 4.7zM706.3 359.9c-0.2 2.5 2.2 5 4.8 4.9 2.1-0.1 3.7-1.9 3.8-4.2 0.1-2.5-1.8-5-4-5-2.2-0.1-4.4 2-4.6 4.3zM745.6 344.3c0.2 1.7 2.8 3.5 5.3 3.6 1.9 0.1 3.3-1.5 3.3-3.7 0-3-1.6-5.4-3.6-5.5-2.5-0.3-5.3 2.9-5 5.6zM702 375.5c-0.2-1.6-3.8-4.1-5.9-4-1.5 0.1-2.9 2.4-2.8 4.4 0.2 2.6 2.2 5 4.2 5 2.1 0.1 4.7-3 4.5-5.4zM576.9 307c0.1-3.5-2-7-4-6.7-2.3 0.4-3.9 2.9-3.8 6 0.1 2.5 1.5 3.9 4 3.8 2.1 0 3.7-1.3 3.8-3.1zM606.6 364.7c-0.1-2.3-2.4-4.6-4.6-4.4-2.1 0.2-4.1 2.8-3.9 5.1 0.2 2.1 2.2 4 4.2 3.9 2.3 0 4.4-2.3 4.3-4.6zM610.4 349.9c0 1.9 1.8 3.3 4.6 3.4 2.5 0.1 3.9-1.3 3.9-4 0-3-1.7-5.2-4-5-2.2 0.1-4.4 2.8-4.5 5.6zM719.6 344.8c0.1 2.4 2 4.8 3.5 4.6 2.2-0.4 4.6-3.3 4.5-5.6-0.1-2.1-2.2-4.1-4.1-4-2 0.1-3.9 2.6-3.9 5zM612.6 379.8c0.1 2.5 1.2 4 3.1 4.2 2.9 0.2 5.2-1.7 5.2-4.4 0-2.4-1.9-4.4-4.5-4.7-2.3-0.2-3.9 1.8-3.8 4.9zM627.4 328.2c-2 0.3-3.3 1.9-3.3 4.2 0 3.3 1.8 5.6 4.3 5.4 2.2-0.2 4-2.6 3.9-5.1-0.1-0.9-0.4-1.8-0.9-2.5-1.4-0.7-2.7-1.3-4-2zM700.8 345.9c0-2.8-2.4-5.1-4.9-4.7-2.1 0.3-3.6 2.3-3.5 4.6 0.2 2.7 2 4.4 4.5 4.3 2.4-0.1 3.9-1.8 3.9-4.2zM736.4 323.9c-0.8 0.4-1.7 0.8-2.5 1.3-0.9 1-1.6 2.4-1.6 3.9 0 2 2.2 3.9 4.9 4.3 1.6 0.2 3-1.3 3-3.2 0-3.3-1.7-6.1-3.8-6.3zM589.7 323.4c0.7-0.5 1.1-1.3 1.1-2.6-0.2-3.4-1.7-5.9-3.5-5.7-1.3 0.1-2.5 1.2-3.3 2.6l0.2 0.2c2.1 1.6 3.9 3.5 5.5 5.5z" fill="#FFFFFF" p-id="4989"></path><path d="M355.3 571c-0.6 0-1.2-0.2-1.7-0.6-4.1-3.6-8.2-7.3-12.4-10.9-1-0.9-1.1-2.5-0.2-3.6 0.9-1 2.5-1.1 3.5-0.2 4.1 3.6 8.3 7.3 12.4 10.9 1 0.9 1.1 2.5 0.2 3.5-0.4 0.6-1.1 0.9-1.8 0.9zM383.5 574.7c-0.6 0-1.2-0.2-1.7-0.7-8.9-8.2-17.6-16.3-26-24.2-1-1-1.1-2.5-0.1-3.6 1-1 2.5-1.1 3.6-0.1 8.4 7.9 17.1 16 25.9 24.2 1 0.9 1.1 2.5 0.1 3.6-0.5 0.5-1.1 0.8-1.8 0.8zM412.7 576.9c-0.6 0-1.2-0.2-1.7-0.7-16-14.5-32.1-29.1-48.2-43.6-1-0.9-1.1-2.5-0.2-3.6 0.9-1 2.5-1.1 3.6-0.2 16.1 14.5 32.1 29 48.2 43.6 1 0.9 1.1 2.5 0.2 3.6-0.6 0.6-1.3 0.9-1.9 0.9zM436.6 575c-0.6 0-1.2-0.2-1.7-0.6-21.8-19.5-43.6-39-65.3-58.6-1-0.9-1.1-2.5-0.2-3.6 0.9-1 2.5-1.1 3.6-0.2 21.7 19.6 43.5 39.1 65.3 58.6 1 0.9 1.1 2.5 0.2 3.6-0.5 0.5-1.2 0.8-1.9 0.8zM456.9 569c-0.6 0-1.2-0.2-1.7-0.7-30.9-28.3-54.8-49.6-77.7-68.9-1.1-0.9-1.2-2.5-0.3-3.5 0.9-1.1 2.5-1.2 3.5-0.3 22.9 19.4 46.9 40.7 77.9 69.1 1 0.9 1.1 2.5 0.2 3.6-0.5 0.4-1.2 0.7-1.9 0.7zM478.7 566c-0.6 0-1.1-0.2-1.6-0.6-28.6-23.6-56.4-46.9-82.4-72.7-1-1-1-2.6 0-3.6s2.6-1 3.6 0c25.9 25.6 53.6 48.8 82.1 72.4 1.1 0.9 1.2 2.5 0.3 3.5-0.5 0.7-1.3 1-2 1zM497.6 560c-0.6 0-1.2-0.2-1.7-0.6-12.4-11.2-25.1-22.4-37.4-33.2-16.2-14.3-32.9-29-49.1-43.8-1-0.9-1.1-2.5-0.2-3.6 0.9-1 2.5-1.1 3.6-0.2 16.1 14.8 32.8 29.5 49 43.7 12.3 10.9 25 22.1 37.4 33.3 1 0.9 1.1 2.5 0.2 3.6-0.4 0.6-1.1 0.8-1.8 0.8zM516.5 554.5c-0.5 0-1.1-0.2-1.5-0.5-21.8-16.9-42.6-36.5-62.7-55.5-8.7-8.2-17.7-16.7-26.5-24.6-1-0.9-1.1-2.5-0.2-3.6 0.9-1 2.5-1.1 3.6-0.2 8.8 8 17.8 16.5 26.5 24.7 20 18.9 40.7 38.4 62.3 55.2 1.1 0.9 1.3 2.4 0.4 3.5-0.4 0.7-1.2 1-1.9 1zM536.1 548c-0.6 0-1.2-0.2-1.7-0.6-32.3-28.8-62-55.2-90.8-80.6-1-0.9-1.1-2.5-0.2-3.5 0.9-1 2.5-1.1 3.5-0.2 28.9 25.5 58.6 51.9 90.9 80.7 1 0.9 1.1 2.5 0.2 3.6-0.6 0.3-1.3 0.6-1.9 0.6zM552.8 542c-0.6 0-1.2-0.2-1.7-0.7-9.7-8.8-20.2-17.7-31.3-27.1-20.4-17.4-41.6-35.3-58.5-53.5-0.9-1-0.9-2.6 0.1-3.6 1-0.9 2.6-0.9 3.6 0.1 16.7 18 37.7 35.8 58.1 53.1 11.1 9.4 21.6 18.4 31.4 27.2 1 0.9 1.1 2.5 0.2 3.6-0.5 0.7-1.2 0.9-1.9 0.9zM573.9 536.8c-0.6 0-1.2-0.2-1.7-0.6-9.1-8-17.8-15.5-26.3-22.8-19.4-16.6-37.8-32.3-56.9-52.2-1-1-0.9-2.6 0.1-3.6s2.6-0.9 3.6 0.1c18.9 19.8 37.2 35.3 56.5 51.8 8.5 7.3 17.3 14.8 26.4 22.8 1 0.9 1.1 2.5 0.2 3.6-0.5 0.6-1.2 0.9-1.9 0.9zM594 530.9c-0.6 0-1.2-0.2-1.7-0.6-30.2-26.3-65.9-57.6-101.6-90.4-1-0.9-1.1-2.5-0.1-3.6 0.9-1 2.5-1.1 3.6-0.2 35.7 32.8 71.4 64.1 101.5 90.4 1 0.9 1.2 2.5 0.2 3.5-0.5 0.6-1.2 0.9-1.9 0.9zM616.7 530c-0.6 0-1.2-0.2-1.7-0.6-35-30.4-72.4-63.4-108.5-98.3-1-1-1-2.6-0.1-3.6 1-1 2.6-1 3.6-0.1 36 34.8 73.3 67.8 108.3 98.1 1 0.9 1.2 2.5 0.2 3.5-0.4 0.7-1.1 1-1.8 1zM643.8 530c-0.6 0-1.2-0.2-1.7-0.6L520.5 420.5c-1-0.9-1.1-2.5-0.2-3.6 0.9-1 2.5-1.1 3.6-0.2l121.6 108.8c1 0.9 1.1 2.5 0.2 3.6-0.5 0.6-1.2 0.9-1.9 0.9zM679.5 536.8c-0.6 0-1.2-0.2-1.7-0.6-22.4-19.8-45.2-39.8-67.3-59.2-25.2-22.1-51.2-44.9-76.6-67.5-1-0.9-1.1-2.5-0.2-3.5 0.9-1 2.5-1.1 3.6-0.2 25.4 22.6 51.4 45.4 76.6 67.4 22.1 19.4 44.9 39.4 67.3 59.2 1 0.9 1.1 2.5 0.2 3.5-0.5 0.6-1.2 0.9-1.9 0.9zM715.2 547.8c-0.6 0-1.2-0.2-1.7-0.6L547.3 398.4c-1-0.9-1.1-2.5-0.2-3.6 0.9-1 2.5-1.1 3.6-0.2l166.2 148.7c1 0.9 1.1 2.5 0.2 3.6-0.6 0.6-1.3 0.9-1.9 0.9z" fill="#FFFFFF" p-id="4990"></path><path d="M739.6 641.9c-40.2 0-79.4-4.6-79.8-4.6h-0.4c-4.9 0-11.4-8.9-14.8-17.6l-0.9-2.4-2.7-0.1c-0.3 0-0.5 0-0.8 0.1l-15.4 3.1-0.1 3c-0.2 11.5-1.9 13.8-2.3 14.2 0 0-0.1 0-0.2-0.1-8.1-2.7-148.7-2.9-150.1-2.9-9.5 0-17.1 0-21.9 0.1-1.3-0.9-4.4-4.3-6.9-7.9l-0.8-2-2.7-0.1h-15.2c-3.7 0-3.8 2.1-3.9 8.9-1.7 0.2-5.1 0.5-11.9 0.5-34.2 0-110.9-6.3-119.1-7-1.7-1.1-5.1-3.7-5.7-4.8-1.1-2.3-3.6-2.3-4.5-2.3-2.8 0-9.7 0.7-21.2 2.3-0.6 0.1-1.2 0.1-1.8 0.1-25.1 0-104.4-46.8-114.6-54.5v-15.3c0-11.8 6.6-28.4 14.7-37.8 6.6 2.8 28.5 11.8 102.8 41.5l12.1 10.1c2.3 1.9 5.1 2.9 8 2.9h6.7c2.5 0 4.9-0.7 7-2.1l10.4-6.9c0.8-0.6 1.8-0.8 2.8-0.8h0.3l82.3 4.8h0.5l38.1 4.8c0.5 0.1 1 0.1 1.6 0.1 1.1 0 2.1-0.1 3.2-0.4l199.1-51.6c0.4-0.1 0.8-0.2 1.3-0.2 0.7 0 1.4 0.1 2 0.4l60.7 26.7h1.6l0.7-0.3c9.1-3.2 142.3-47.9 162.3-47.9h0.7c8.5 4.8 19.4 48.4 23 62.8 3.8 15.3-15.6 36.3-65.1 70.2-12.3 8.6-39.6 13-79.1 13z" fill="#FFFFFF" p-id="4991"></path><path d="M859.5 499.9c3 2.9 9.4 14.9 20.6 60 2.1 8.3-2.3 24.2-63.6 66.1-8.1 5.5-28 12.1-76.9 12.1-39.9 0-79-4.6-79.4-4.6l-0.4-0.1h-0.4c-2.1 0-7.8-6.4-11.3-15.2-1.2-3-4-4.9-7.2-4.9h-0.8l-0.7 0.1-12.4 2.5-6 1.2-0.1 6.1c-0.1 5.4-0.5 8.4-0.9 10-23.3-2.5-146.7-2.5-148-2.5-8.7 0-15.8 0-20.5 0.1-1.3-1.3-3.5-3.9-5.2-6.4-1.4-2.2-3.8-3.6-6.6-3.6h-15.2c-2.5 0-7.3 1.6-7.6 7.8v1.4c-1.8 0.1-4.5 0.2-8.2 0.2-32.5 0-106.1-5.9-117.8-6.9-1.4-1-3.2-2.4-3.7-3.1-1-1.9-3.2-4.1-7.7-4.1-1.9 0-6.2 0.2-21.7 2.3-0.4 0-0.8 0.1-1.3 0.1-9.9 0-32.8-9.1-62.9-24.8-22.2-11.6-41.4-23.3-48-27.8v-13.3c0-10 5.4-24.3 12.1-33.2 9.5 4 34.2 14.1 99.7 40.2l11.7 9.7c2.9 2.4 6.6 3.8 10.5 3.8h6.7c3.2 0 6.4-0.9 9.1-2.7l10.4-6.9c0.2-0.1 0.4-0.2 0.8-0.2l82.2 4.8h0.4l38.2 4.8c0.7 0.1 1.4 0.1 2 0.1 1.4 0 2.8-0.2 4.1-0.5l199.1-51.6h0.3c0.2 0 0.3 0 0.5 0.1l60 26.4c1 0.4 2 0.7 3.1 0.7h1.4l1.2-0.4c15.2-5.7 140.1-47 160.4-47.8M860 492.3c-21.4 0-160.2 46.9-163.7 48.1h-0.1-0.1l-60-26.4c-1.1-0.5-2.3-0.7-3.5-0.7-0.7 0-1.5 0.1-2.2 0.3l-199.1 51.6c-0.7 0.2-1.5 0.3-2.2 0.3-0.4 0-0.7 0-1.1-0.1l-38.3-4.8c-0.2 0-0.4 0-0.6-0.1l-82.3-4.8h-0.5c-1.7 0-3.4 0.5-4.9 1.5l-10.4 6.9c-1.4 1-3.1 1.5-4.9 1.5h-6.7c-2.1 0-4-0.7-5.6-2L261.3 553h-0.1s-103.8-41.5-105.4-42.7h-0.1c-0.1 0-0.1 0-0.1 0.1-9.7 9.6-17.6 28.6-17.6 42.2v16.9c0 2.2 90.3 56.6 118.4 56.6 0.8 0 1.6 0 2.3-0.1 12.6-1.7 18.4-2.2 20.7-2.2 0.7 0 1.1 0.1 1.1 0.2 1.3 2.7 7.4 6.6 7.9 6.8 0.5 0.2 84.7 7.1 120.3 7.1 9.3 0 15.3-0.5 15.6-1.7 0-0.1 0.1-7.7 0.2-7.7h15.2c0.1 0 0.2 0.1 0.2 0.1s6.8 9.9 9.7 9.9c4.7-0.1 12.5-0.1 22.4-0.1 48 0 143.3 0.8 148.9 2.7 0.5 0.2 1 0.3 1.5 0.3 5 0 5.9-9.9 6-17.9l12.4-2.5c0.1 0 0.2 0.1 0.2 0.1 3 7.5 10.3 20 18.3 20 0 0 39.4 4.7 80.2 4.7 32.4 0 65.8-2.9 81.2-13.5 47.8-32.7 71.3-55.6 66.6-74.2-5-20.1-15.1-60.4-25.1-65.4-0.4-0.3-1.1-0.4-2.2-0.4z" fill="#0431BC" p-id="4992"></path><path d="M703.8 540.4L646 603.3l2.5 22.6" fill="#FFFFFF" p-id="4993"></path><path d="M648.5 629.7c-1.9 0-3.5-1.4-3.7-3.4l-2.7-24.3 59-64.1c1.4-1.5 3.8-1.6 5.3-0.2 1.5 1.4 1.6 3.8 0.2 5.3l-56.7 61.6 2.3 20.9c0.2 2.1-1.3 3.9-3.3 4.2h-0.4z" fill="#0431BC" p-id="4994"></path><path d="M613.6 608.8h-0.2l-165.2-1.3c-11.3-0.1-21.4-8.9-24.5-21.5l-2.8-11.3c-0.5-2 0.7-4.1 2.8-4.6 2-0.5 4.1 0.7 4.6 2.8l2.8 11.3c2.3 9.2 9.3 15.7 17.2 15.8l165.2 1.3h0.1c4.8 0 9.5-2.4 12.9-6.6l48.2-59.5c1.3-1.6 3.7-1.9 5.3-0.6 1.6 1.3 1.9 3.7 0.6 5.3l-48.2 59.5c-4.9 6-11.7 9.4-18.8 9.4z" fill="#0431BC" p-id="4995"></path><path d="M472.1 577.5c27.3-7.8 136.8-38.7 160.3-38.7 1.7 0 2.3 0.2 2.3 0.2 8.7 2.9 12.6 6.6 14.2 8.7-7.9 9.8-25.9 30.1-36.3 31.8-13.7 2.3-116.8 6.8-131.2 7.4l-9.3-9.4z" fill="#FFFFFF" p-id="4996"></path><path d="M632.4 535v7.5c0.7 0 1.1 0 1.3 0.1 5.1 1.7 8.3 3.7 10.2 5.3-9.8 11.9-24.6 26.6-31.9 27.8-11.6 1.9-94.1 5.8-129.1 7.3l-3.7-3.7c45-12.8 133.4-36.8 153.1-36.8l0.1-7.5m0 0c-27.6 0-167.5 40.6-167.5 40.6l15.1 15.1s118.2-5 133.3-7.5c15.1-2.5 40.2-35.2 40.2-35.2s-2.5-7.5-17.6-12.6c-0.8-0.3-1.9-0.4-3.5-0.4z" fill="#0431BC" p-id="4997"></path><path d="M237.2 620.9c-0.7 0-1.3-0.2-2-0.6-1.8-1.1-2.3-3.4-1.3-5.2 7.2-11.8 10.6-21.8 9.1-26.9-0.4-1.4-1.2-2.3-2.4-3l-0.3-0.2c-24.4-15-49.3-24.6-73.5-33.8-7.9-3-16.1-6.2-24.2-9.5-1.9-0.8-2.9-3-2.1-4.9 0.8-1.9 3-2.9 4.9-2.1 8 3.3 16.2 6.4 24.1 9.4 24.4 9.4 49.7 19 74.6 34.4 3.1 1.6 5.2 4.2 6.1 7.5 2.7 9.3-3.9 23.1-9.9 32.9-0.6 1.4-1.8 2-3.1 2z" fill="#0431BC" p-id="4998"></path><path d="M427.2 627.2c-1 0-2-0.4-2.7-1.1l-29.8-30.5c-2.9-3.1-7.4-5.1-12.4-5.4l-65.2-4.4c-5.7-0.4-11.2 1-15.4 3.9l-17 33.6c-0.9 1.9-3.2 2.6-5.1 1.7-1.9-0.9-2.6-3.2-1.7-5.1l17.8-35.1 0.7-0.5c5.6-4.3 13.3-6.4 21.1-5.9l65.2 4.4c6.9 0.5 13.3 3.3 17.4 7.8l29.7 30.4c1.5 1.5 1.4 3.9-0.1 5.3-0.6 0.5-1.5 0.9-2.5 0.9z" fill="#0431BC" p-id="4999"></path><path d="M671.1 584.4c-1.9 0-3.5-1.4-3.7-3.4-0.2-2.1 1.3-3.9 3.3-4.2L782 564.4l87.6-37c1.9-0.8 4.1 0.1 4.9 2 0.8 1.9-0.1 4.1-2 4.9l-88.1 37.3c-0.3 0.1-0.7 0.2-1 0.3l-111.8 12.6c-0.2-0.1-0.3-0.1-0.5-0.1z" fill="#0431BC" p-id="5000"></path><path d="M728.5 535.3c-3.1-2.8-9.5-8.8-18.4-17.1-25.3-23.6-72.5-67.7-114.9-104.8-71.2-62.3-84.7-66.2-87.1-65.9 0.1 0 0.3-0.1 0.5-0.2l-4.4-6.1c7.8-5.7 30.5 2.9 211.1 171.5 8.9 8.3 15.3 14.3 18.3 17l-5.1 5.6z" fill="#FFFFFF" p-id="5001"></path><path d="M596.3 404.6l57.5 50s138.4-50 158.3-56.6 19.6-8.9 19.6-8.9 4.5-47.2-5.2-53.3c-9.7-6.1-20.3 2-20.3 2s-212.2 57-209.9 66.8" fill="#FFFFFF" p-id="5002"></path><path d="M653.8 458.4c-0.9 0-1.8-0.3-2.5-0.9l-57.5-50c-0.6-0.5-1-1.2-1.2-2-1.2-4.9-2.3-9.6 106.7-41.6 49.1-14.4 99-27.9 105.2-29.6 2.8-1.9 13.5-8.2 23.9-1.7 3.4 2.1 7.8 7.7 8 32.1 0.1 11.7-0.9 22.6-1 24.5 0.1 2.8-2.3 5.8-22.2 12.4-19.6 6.5-156.8 56.1-158.2 56.6-0.3 0.1-0.7 0.2-1.2 0.2z m-52-54l52.8 45.9c17.4-6.3 137.9-49.8 156.3-55.9 11.7-3.9 15.8-6.1 17.2-7 2.4-26.2 0.1-46.2-3.6-48.5-7.3-4.6-15.7 1.5-16 1.8-0.4 0.3-0.8 0.5-1.3 0.6-72.1 19.5-186.7 52.4-205.4 63.1z m226.2-15z m0-0.8v0.8c-0.1-0.2-0.1-0.5 0-0.8 0 0.1 0 0.1 0 0z" fill="#0431BC" p-id="5003"></path><path d="M672.8 440c-1.9 0-4-0.3-6.1-0.9-11.9-3.6-42.2-18.8-43.5-19.5-1.3-0.7-2.1-2.1-2.1-3.6 0.1-1.5 1-2.8 2.4-3.3l50.5-19c1.9-0.7 4.1 0.2 4.8 2.2l12.2 31.6c0.5 1.3 0.3 2.7-0.6 3.7-0.2 0.4-7 8.8-17.6 8.8z m-38.4-23.3c9.9 4.8 26.7 12.8 34.5 15.1 6.7 2 12-1.7 14.4-3.9l-10-25.8-38.9 14.6z" fill="#0431BC" p-id="5004"></path><path d="M687.6 432.6c-1.5 0-3-1-3.6-2.5-0.7-2 0.3-4.1 2.3-4.8l144.9-51.6c2-0.7 4.1 0.3 4.8 2.3 0.7 2-0.3 4.1-2.3 4.8l-144.9 51.6c-0.4 0.1-0.8 0.2-1.2 0.2z" fill="#0431BC" p-id="5005"></path></svg>