<svg class="icon" style="width: 1em; height: 1em;vertical-align: middle;fill: currentColor;overflow: hidden;" viewBox="0 0 1024 1024" version="1.1" xmlns="http://www.w3.org/2000/svg" p-id="5068"><path d="M944.708 874.611c-5.092 24.962-17.271 43.936-40.479 52.765-64.959 24.748-325.156 22.015-495.833 17.231-11.175-0.308-21.974-0.63-32.292-0.951-71.886-2.265-121.302-4.596-121.302-4.596s-26.611-2.626-59.318-11.362c-61.529-16.427-144.63-54.521-112.727-137.568 2.492-6.525 5.708-13.319 9.688-20.393 6.123-10.036 14.766-17.057 25.726-22.269 43.748-20.836 124.411-12.89 229.446-52.94 25.431-9.688 52.283-22.202 80.395-38.616 50.019-29.21 103.99-70.801 160.923-130.896 10.451-12.555 19.965-23.663 28.66-33.323 49.885-55.566 72.288-63.592 88.984-25.498 0 0 8.509 32.104 27.549 59.144 19.295 27.415 49.416 49.644 92.454 27.924 52.35-30.001 80.528-77.259 77.648 28.594-0.255 9.433 0.723 20.46 2.532 32.68 4.757 32.211 15.328 72.663 24.534 113.825 1.661 7.41 3.269 14.846 4.797 22.256 9.366 45.514 15.475 90.24 8.615 123.993z" fill="#4012E5" p-id="5069"></path><path d="M681.636 442.694c10.28 0 18.092 7.865 24.944 23.499 0 0 8.508 32.104 27.549 59.144 13.848 19.676 33.279 36.683 59.053 36.683 10.138 0 21.251-2.628 33.4-8.759 27.9-15.989 48.937-36.88 62.063-36.882 11.503-0.002 16.93 16.038 15.585 65.476-0.255 9.433 0.723 20.461 2.532 32.68 4.757 32.211 15.328 72.663 24.534 113.825 1.661 7.41 3.269 14.846 4.797 22.256 9.366 45.517 15.476 90.243 8.615 123.995-5.092 24.962-17.271 43.936-40.479 52.765-41.539 15.826-162.927 20.414-289.677 20.414-71.463 0-144.621-1.458-206.156-3.183-11.175-0.308-21.974-0.63-32.292-0.951-71.886-2.265-121.302-4.596-121.302-4.596s-26.611-2.626-59.318-11.362c-61.529-16.427-144.63-54.521-112.727-137.568 2.492-6.525 5.708-13.319 9.688-20.393 6.123-10.036 14.766-17.057 25.726-22.269 43.748-20.836 124.411-12.89 229.446-52.94 25.431-9.688 52.283-22.202 80.394-38.616 50.019-29.21 103.99-70.801 160.923-130.896 10.451-12.555 19.965-23.663 28.66-33.323 29.414-32.763 49.274-48.999 64.042-48.999m0-11.69c-18.183 0-38.577 14.826-72.739 52.878-8.269 9.187-17.664 20.107-28.704 33.363-51.111 53.908-104.292 97.162-158.076 128.571-25.575 14.933-52.041 27.646-78.661 37.786-58.38 22.26-109.431 29.432-150.45 35.194-33.142 4.656-59.319 8.333-79.861 18.116-13.617 6.475-23.654 15.221-30.679 26.735l-0.108 0.177-0.102 0.181c-4.205 7.476-7.711 14.862-10.419 21.954-10.864 28.28-10.433 54.285 1.288 77.27 9.78 19.18 27.412 35.947 52.404 49.835 18.518 10.29 41.04 19.014 66.941 25.929 33.244 8.879 60.06 11.591 61.185 11.702l0.298 0.029 0.299 0.014c0.495 0.023 50.33 2.362 121.484 4.603 11.437 0.356 22.013 0.668 32.338 0.953 75.454 2.115 144.925 3.187 206.478 3.187 70.937 0 130.658-1.445 177.503-4.294 57.664-3.507 95.718-9.031 116.337-16.886 25.361-9.649 41.435-30.292 47.771-61.353 7.867-38.704-0.474-89.103-8.62-128.688a1348.553 1348.553 0 0 0-4.84-22.458c-2.616-11.695-5.354-23.39-8.003-34.701-6.703-28.623-13.033-55.658-16.373-78.274-1.843-12.453-2.632-22.48-2.411-30.657 1.123-41.261-2.138-61.138-11.63-70.892-4.195-4.311-9.603-6.589-15.639-6.589-11.734 0.002-23.929 8.657-39.368 19.616-8.416 5.974-17.946 12.738-28.237 18.658-9.77 4.89-19.141 7.368-27.86 7.368-18.027 0-34.679-10.673-49.494-31.721-17.54-24.91-25.73-55.118-25.811-55.42l-0.23-0.861-0.36-0.827c-3.306-7.544-13.366-30.498-35.651-30.498z" fill="#0A0A0A" p-id="5070"></path><path d="M906.762 614.534c-44.659-0.308-110.127-12.019-157.372-22.028-58.822-12.475-15.261-67.17-15.261-67.17 19.295 27.415 49.416 49.644 92.454 27.924 52.35-30.001 80.528-77.259 77.648 28.594-0.256 9.433 0.722 20.46 2.531 32.68z" fill="#4012E5" p-id="5071"></path><path d="M888.645 516.378c11.503-0.002 16.93 16.038 15.585 65.476-0.255 9.433 0.723 20.46 2.532 32.68-44.659-0.308-110.127-12.019-157.372-22.028-58.822-12.475-15.261-67.17-15.261-67.17 13.848 19.676 33.279 36.683 59.053 36.683 10.138 0 21.251-2.628 33.4-8.759 27.9-15.989 48.937-36.88 62.063-36.882m0.002-11.69h-0.003c-11.73 0.002-23.925 8.657-39.365 19.616-8.416 5.974-17.945 12.737-28.236 18.657-9.77 4.89-19.142 7.369-27.861 7.369-18.027 0-34.679-10.672-49.493-31.721l-8.982-12.762-9.722 12.208c-2.596 3.26-25.096 32.589-15.856 58.332 5.036 14.029 17.766 23.3 37.836 27.557 38.596 8.177 110.664 21.944 159.717 22.282l13.643 0.094-1.998-13.496c-1.843-12.449-2.631-22.476-2.411-30.653 1.123-41.261-2.138-61.138-11.63-70.892-4.195-4.312-9.603-6.591-15.639-6.591z" fill="#0A0A0A" p-id="5072"></path><path d="M929.169 711.969c-1.675 0.121-20.808 3.289-22.523 3.422-49.308 3.43-114.106 4.167-132.879-13.265l-0.013-0.013c-31.448-29.25-155.603-69.568-188.538-24.855-32.948 44.699-60.001 51.761-74.392 51.854-12.447 0.094-68.362 2.599-138.104 19.442a699.09 699.09 0 0 0-33.404 8.937c-49.644 14.618-64.128-12.233-67.612-36.955 19.241-4.824 39.608-10.987 60.979-19.134h0.013a515.023 515.023 0 0 0 24.252-9.942 571.219 571.219 0 0 0 9.916-4.489c14.993-6.954 30.416-14.953 46.227-24.185 50.019-29.223 103.977-70.801 160.91-130.896 10.451-12.555 19.964-23.663 28.66-33.324 6.445-7.168 12.421-13.546 17.995-19.134 28.728-28.835 46.522-36.687 59.8-23.984l0.764 0.764c0.71 0.724 1.42 1.514 2.103 2.372a32.3 32.3 0 0 1 1.353 1.782c0.013 0 0.013 0 0 0.013 2.466 3.417 4.77 7.651 6.981 12.689 0 0 0.04 0.134 0.094 0.375 0.188 0.657 0.63 2.197 1.326 4.435 0.067 0.201 0.134 0.415 0.201 0.63 0.08 0.268 0.174 0.549 0.268 0.831 0.469 1.42 1.018 3.068 1.648 4.877 0.254 0.724 0.522 1.474 0.804 2.251 0.429 1.166 0.885 2.398 1.367 3.685a553.503 553.503 0 0 0 1.568 3.979c0.375 0.911 0.75 1.849 1.152 2.8a255.585 255.585 0 0 0 2.09 4.824c-6.927 6.338-13.426 12.769-18.732 19.348-20.434 25.284-33.882 80.384 25.299 100.304 89.01 29.961 168.545 27.236 204.535 19.893 4.275 21.682 10.117 45.813 15.892 70.669z" fill="#09F7D8" p-id="5073"></path><path d="M313.936 767.466c-10.311 0-19.152-2.349-26.44-7.043-11.731-7.555-18.991-20.701-21.58-39.071l-0.733-5.206 5.1-1.28c20.978-5.259 40.709-11.451 60.319-18.926l1.016-0.383a510.65 510.65 0 0 0 22.975-9.446 576.794 576.794 0 0 0 9.813-4.442c15.34-7.115 30.729-15.167 45.738-23.93 54.316-31.735 107.976-75.385 159.485-129.732 11.041-13.261 20.425-24.169 28.687-33.349 6.786-7.546 12.74-13.877 18.201-19.352 22.477-22.561 48.133-43.065 67.979-24.08l0.856 0.854a37.571 37.571 0 0 1 2.201 2.442h1.027l1.275 3.058c2.503 3.579 4.848 7.887 7.153 13.141l0.249 0.68s0.065 0.205 0.153 0.58c0.2 0.696 0.611 2.117 1.233 4.117 0.071 0.218 0.145 0.448 0.216 0.678 0.078 0.257 0.153 0.482 0.228 0.706a307.26 307.26 0 0 0 1.625 4.812c0.243 0.687 0.504 1.422 0.78 2.182a626.31 626.31 0 0 0 1.344 3.623c0.464 1.191 0.981 2.503 1.525 3.868l0.358 0.876c0.243 0.596 0.489 1.201 0.748 1.811a242.977 242.977 0 0 0 2.042 4.714l1.723 3.852-3.113 2.848c-7.916 7.243-13.677 13.187-18.127 18.705-10.975 13.581-20.1 37.411-14.209 57.652 4.506 15.483 16.895 26.735 36.823 33.443 39.284 13.223 79.871 21.177 120.637 23.64 42.877 2.592 70.834-1.887 80.865-3.935l5.765-1.176 1.138 5.773c3.434 17.42 7.852 36.285 12.529 56.258 1.102 4.704 2.213 9.447 3.321 14.216l1.549 6.665-6.788 0.485c-0.974 0.099-6.77 1.016-11.008 1.687-7.418 1.173-10.536 1.659-11.514 1.735-74.938 5.212-121.118 0.23-137.312-14.809-11.043-10.272-34.396-22.032-60.96-30.704-30.146-9.844-58.946-14.126-81.1-12.048-17.986 1.684-30.707 7.426-37.808 17.067-32.886 44.613-61.145 54.116-79.06 54.232-0.582 0.004-59.67 0.66-136.77 19.278a697.368 697.368 0 0 0-33.127 8.864c-9.887 2.915-18.913 4.37-27.027 4.37z m-35.547-42.605c2.558 12.133 7.738 20.776 15.437 25.735 10.037 6.465 24.787 6.899 43.839 1.288a708.873 708.873 0 0 1 33.685-9.013c78.397-18.932 136.974-19.586 139.43-19.605 29.079-0.188 56.17-31.08 69.731-49.477 9.163-12.438 24.683-19.764 46.13-21.772 23.705-2.217 54.185 2.246 85.818 12.574 28.075 9.166 53.087 21.904 65.276 33.242 7.74 7.188 34.711 18.255 128.507 11.727 0.797-0.081 6.433-0.973 10.549-1.624 2.079-0.329 3.807-0.601 5.246-0.827l-1.875-8.014c-4.201-17.938-8.194-34.985-11.474-50.985-43.691 7.529-120.291 6.277-201.807-21.161-16.341-5.501-37.296-17.124-44.319-41.256-7.102-24.402 3.089-51.868 16.339-68.263 4.216-5.226 9.437-10.734 16.262-17.142l-0.459-1.082c-0.278-0.655-0.543-1.309-0.806-1.951l-0.367-0.899a555.85 555.85 0 0 1-1.609-4.083 665.845 665.845 0 0 1-1.406-3.786c-0.298-0.822-0.571-1.589-0.831-2.328a326.052 326.052 0 0 1-1.685-4.987 30.82 30.82 0 0 1-0.314-0.974c-0.042-0.135-0.097-0.313-0.152-0.479l-0.033-0.103a198.989 198.989 0 0 1-1.366-4.568l-0.02-0.071c-2.039-4.589-4.06-8.248-6.174-11.177l-0.619-0.859a31.105 31.105 0 0 0-0.537-0.679 25.77 25.77 0 0 0-1.733-1.957l-0.678-0.678c-4.643-4.439-14.325-13.458-51.572 23.931-5.321 5.333-11.139 11.52-17.789 18.917-8.193 9.102-17.52 19.946-28.515 33.155l-0.249 0.281c-52.31 55.216-106.884 99.601-162.204 131.922-15.326 8.948-31.043 17.172-46.717 24.441a578.106 578.106 0 0 1-10.017 4.534 524.928 524.928 0 0 1-24.528 10.055l-1.021 0.383c-18.069 6.846-36.245 12.63-55.373 17.615z" fill="#0A0A0A" p-id="5074"></path><path d="M944.712 874.607c-5.091 24.963-17.271 43.936-40.479 52.766-64.959 24.748-325.155 22.015-495.833 17.231-11.175-0.308-21.974-0.63-32.292-0.951l5.493-59.666 3.631-39.326 2.747-29.84s-6.83 8.078-6.669 8.132c1.433 0.509 16.022-6.27 25.857-32.826 7.57-20.474-33.645-68.282-59.545-95.602 25.431-9.688 52.283-22.202 80.394-38.616 22.738 14.337 62.306 40.666 127.975 87.938 124.772 89.827 209.414-39.219 271.385-80.006 61.957-40.787 103.923 64.517 103.923 64.517 1.661 7.41 3.27 14.846 4.797 22.256 9.367 45.514 15.477 90.24 8.616 123.993z" fill="#4012E5" p-id="5075"></path><path d="M615.77 953.679c-68.898 0-141.203-1.374-207.533-3.233a9125.84 9125.84 0 0 1-32.31-0.951l-6.208-0.193 11.107-120.529a5.946 5.946 0 0 1-1.349-0.271l-2.949-0.974-0.846-2.992c-0.867-3.075 0.154-4.3 4.451-9.459 1.688-2.026 3.383-4.03 3.383-4.03l11.985-14.175-0.486 5.28c2.293-3.795 4.588-8.433 6.67-14.055 1.189-3.215 1.96-13.538-16.523-39.843-12.635-17.984-29.696-36.958-41.784-49.709l-6.032-6.363 8.193-3.121c26.92-10.254 53.677-23.107 79.528-38.201l3.064-1.789 3.001 1.892c21.443 13.521 61.104 39.787 128.272 88.139 42.027 30.256 82.778 37.528 124.58 22.231 36.758-13.45 68.808-41.973 97.085-67.138 15.253-13.576 29.661-26.398 43.092-35.237 15.492-10.199 31.243-12.888 46.815-7.99 40.434 12.715 64.737 72.678 65.751 75.224l0.172 0.432 0.102 0.454a1342.685 1342.685 0 0 1 4.819 22.354c8.033 39.041 16.272 88.681 8.618 126.34l-0.001 0.004c-5.909 28.97-20.756 48.168-44.127 57.06-41.756 15.909-160 20.843-290.54 20.843z m-233.271-15.677c8.41 0.258 17.115 0.513 26.062 0.758 269.917 7.567 445.211 1.583 493.592-16.85 19.656-7.479 31.703-23.333 36.831-48.468 7.232-35.582-0.804-83.704-8.613-121.653a1314.562 1314.562 0 0 0-4.667-21.671c-2.14-5.139-24.679-57.463-58.252-68.004-12.22-3.839-24.278-1.676-36.861 6.608-12.722 8.373-26.821 20.92-41.748 34.205-29.057 25.859-61.991 55.169-100.839 69.385-15.565 5.696-30.974 8.553-46.309 8.554-29.71 0.002-59.168-10.714-89.119-32.277-63.92-46.013-102.77-71.91-124.692-85.848-22.854 13.154-46.379 24.594-70.097 34.087 11.615 12.565 25.872 28.947 36.943 44.703 16.153 22.991 22.015 39.549 17.921 50.622-5.573 15.047-12.577 23.918-17.472 28.712a48.644 48.644 0 0 1-2.06 1.904l-10.62 115.233z" fill="#0A0A0A" p-id="5076"></path><path d="M414.511 889.212c-1.085 17.593-3.417 37.008-6.11 55.392-11.175-0.308-21.974-0.63-32.292-0.951-71.886-2.264-121.302-4.596-121.302-4.596s-26.611-2.626-59.318-11.362c-61.529-16.427-144.63-54.521-112.727-137.568 2.492-6.525 5.708-13.319 9.688-20.393 6.123-10.036 14.766-17.057 25.727-22.269 7.691 10.183 26.785 20.219 70.157 24.025 100.587 8.83 104.124 19.08 114.71 32.479 16.709 0 57.737-2.238 84.937 10.853 0 0 0.08 0.054 0.241 0.107 8.736 4.247 16.012 10.089 20.581 18.102a33.939 33.939 0 0 1 1.889 3.765c4.529 10.557 5.186 29.999 3.819 52.416z" fill="#FFFFFF" p-id="5077"></path><path d="M413.431 950.589l-5.192-0.143c-11.182-0.308-21.989-0.63-32.313-0.951-71.111-2.24-120.9-4.576-121.395-4.6l-0.299-0.022c-1.106-0.108-27.462-2.774-60.252-11.532-75.14-20.061-104.362-50.647-115.644-72.771-10.936-21.446-11.283-45.852-1.03-72.539 2.602-6.814 5.985-13.937 10.049-21.163l0.105-0.179c6.415-10.513 15.641-18.53 28.206-24.504l4.303-2.045 2.872 3.802c5.879 7.785 22.102 17.873 66.003 21.725 93.031 8.166 105.163 17.233 117.042 32.439 1.124-0.011 2.326-0.027 3.597-0.044 19.406-0.246 55.502-0.72 80.869 11.414l0.076 0.025 0.349 0.17c10.497 5.103 18.27 11.988 23.102 20.464 0.742 1.257 1.467 2.7 2.177 4.339 4.508 10.51 5.908 28.525 4.288 55.094v0.004c-0.978 15.852-3.051 34.652-6.161 55.879l-0.752 5.138z m-158.188-17.363c3.167 0.147 52.051 2.411 121.051 4.585 8.698 0.271 17.741 0.542 27.063 0.805 2.653-18.802 4.441-35.522 5.32-49.763 1.849-30.342-0.804-43.803-3.356-49.753a27.705 27.705 0 0 0-1.554-3.102c-3.654-6.406-9.656-11.667-17.884-15.707a6.927 6.927 0 0 1-0.577-0.269c-22.9-10.954-57.221-10.505-75.672-10.27-2.472 0.032-4.688 0.061-6.591 0.061h-2.831l-1.755-2.221c-0.487-0.617-0.958-1.225-1.426-1.829-8.76-11.309-15.678-20.241-109.209-28.451-35.129-3.081-58.977-10.671-71.022-22.581-8.518 4.687-14.717 10.469-19.308 17.962-3.76 6.694-6.879 13.261-9.27 19.521-9.017 23.472-8.838 44.681 0.528 63.048 18.485 36.25 69.067 56.327 108.246 66.787 30.618 8.175 56.129 10.955 58.247 11.177z" fill="#0A0A0A" p-id="5078"></path><path d="M734.133 525.333c-4.743 2.238-9.62 2.184-14.578-0.951-21.077-13.345-67.504-25.217-101.953-32.694 49.885-55.566 72.288-63.592 88.983-25.498-0.001-0.001 8.507 32.104 27.548 59.143z" fill="#4012E5" p-id="5079"></path><path d="M681.64 442.69c10.28 0 18.092 7.865 24.944 23.499 0 0 8.509 32.104 27.549 59.144-2.148 1.013-4.324 1.557-6.522 1.557-2.655 0-5.343-0.793-8.056-2.508-21.077-13.345-67.504-25.217-101.953-32.694 29.411-32.762 49.27-48.997 64.038-48.998m0.001-11.69c-18.183 0-38.577 14.826-72.739 52.878l-13.437 14.968 19.657 4.266c48.067 10.432 82.934 21.493 98.179 31.146 4.536 2.869 9.349 4.322 14.31 4.322 3.876 0 7.748-0.9 11.51-2.674l12.577-5.933-8.007-11.37c-17.539-24.907-25.729-55.116-25.809-55.418l-0.23-0.861-0.36-0.827C713.985 453.954 703.925 431 681.641 431z" fill="#0A0A0A" p-id="5080"></path><path d="M944.712 874.607c-5.091 24.963-17.271 43.936-40.479 52.766-64.959 24.748-325.155 22.015-495.833 17.231-11.175-0.308-21.974-0.63-32.292-0.951-71.886-2.264-121.302-4.596-121.302-4.596s-26.611-2.626-59.318-11.362l-8.977-72.382s44.177 2.653 90.055-9.701c45.892-12.354 63.538 11.068 82.954 9.942 5.186-0.295 14.176-4.931 25.713-10.893 7.008-3.618 14.953-7.718 23.569-11.63 30.269-13.747 68.737-25.19 103.427-5.065 60.819 35.293 115.527-1.581 140.235-13.145s75.932-63.324 185.296-10.853c27.736 9.915 66.995-21.01 98.336-53.355 9.367 45.515 15.477 90.241 8.616 123.994z" fill="#FFFFFF" p-id="5081"></path><path d="M615.888 953.709c-57.814 0-126.354-0.984-207.651-3.262a9125.84 9125.84 0 0 1-32.31-0.951c-71.111-2.24-120.9-4.576-121.395-4.6l-0.299-0.022c-1.106-0.109-27.462-2.774-60.252-11.532l-3.807-1.017-10.327-83.263 7.014 0.417c0.434 0.028 43.827 2.435 88.187-9.511 31.721-8.538 51.323-0.765 65.633 4.911 7.266 2.883 13.004 5.153 18.502 4.84 3.969-0.224 13.392-5.095 23.368-10.25 7.052-3.641 15.043-7.767 23.835-11.76 28.185-12.8 70.122-27.225 108.778-4.799 51.001 29.598 97.235 5.815 124.857-8.394 3.601-1.852 7.002-3.601 9.966-4.989 3.33-1.558 7.399-4.042 12.111-6.919 28.628-17.477 81.9-49.987 177.901-4.05 20.074 6.908 52.691-11.546 91.899-52.013l7.695-7.942 2.229 10.831c8.033 39.039 16.272 88.679 8.618 126.338l-0.001 0.004c-5.909 28.97-20.756 48.168-44.127 57.06-26.983 10.279-100.856 20.873-290.424 20.873z m-360.644-20.483c3.178 0.148 52.058 2.411 121.05 4.585 10.308 0.322 21.1 0.643 32.268 0.949 156.322 4.384 428.314 8.02 493.592-16.85 19.657-7.48 31.705-23.334 36.832-48.472 6.564-32.306 0.545-74.948-6.464-110.928-33.3 32.721-61.249 49.199-83.389 49.201-4.712 0-9.158-0.746-13.339-2.241l-0.561-0.234c-39.301-18.855-75.393-25.903-107.267-20.949-26.799 4.165-45.859 15.802-59.777 24.298-5.007 3.058-9.331 5.698-13.247 7.53-2.767 1.295-5.921 2.917-9.575 4.796-18.067 9.294-46.26 23.791-79.299 23.794-17.793 0.001-36.985-4.201-56.772-15.684-33.981-19.713-72.248-6.399-98.077 5.331-8.525 3.872-16.376 7.926-23.304 11.502-12.546 6.484-21.613 11.17-28.064 11.535-8.077 0.475-15.556-2.5-23.481-5.644-14.205-5.634-30.307-12.019-58.284-4.488-35.998 9.693-70.519 10.361-84.932 10.122l7.648 61.664c28.904 7.41 52.418 9.971 54.442 10.183z" fill="#0A0A0A" p-id="5082"></path><path d="M944.712 874.607c-5.091 24.963-17.271 43.936-40.479 52.766-64.959 24.748-325.155 22.015-495.833 17.231-11.175-0.308-21.974-0.63-32.292-0.951-71.886-2.264-121.302-4.596-121.302-4.596s-26.611-2.626-59.318-11.362c-61.529-16.427-144.63-54.521-112.727-137.568 22.698 14.618 50.742 31.367 66.754 36.07 12.943 3.805 25.552 15.824 36.995 29.116 15.061 17.513 28.084 37.223 37.115 43.239 15.891 10.585 68.831 14.123 123.539-7.061 12.769-4.944 24.185-7.142 34.436-7.504 12.635-0.456 23.489 1.849 32.908 5.226 15.731 5.614 27.468 14.19 36.767 17.767 19.415 7.463 37.062-66.66 75.893-41.953 38.817 24.708 86.464 67.317 150.003 42.475 63.525-24.828 91.855-21.631 125.326-1.41 28.07 16.956 90.589 19.458 142.215-31.485z" fill="#09F7D8" p-id="5083"></path><path d="M615.889 953.709c-57.814 0-126.355-0.984-207.652-3.262a9125.84 9125.84 0 0 1-32.31-0.951c-71.111-2.24-120.9-4.576-121.395-4.6l-0.299-0.022c-1.106-0.108-27.462-2.774-60.252-11.532-75.14-20.061-104.362-50.647-115.644-72.771-10.936-21.446-11.283-45.852-1.03-72.539l2.578-6.711 6.043 3.892c30.283 19.503 52.841 31.735 65.237 35.376 15.802 4.646 30.27 19.866 39.778 30.912 5.485 6.377 10.568 12.868 15.483 19.145 7.934 10.132 15.429 19.702 20.442 23.042 12.988 8.65 63.589 13.494 118.188-7.647 12.468-4.828 24.695-7.483 36.341-7.894 11.96-0.427 23.436 1.389 35.086 5.565 9.625 3.435 17.602 7.809 24.639 11.667 4.699 2.576 8.757 4.802 12.254 6.147 3.596 1.385 11.34-8.961 16.993-16.511 6.71-8.96 14.316-19.116 23.652-25.236 11.696-7.668 23.905-7.56 36.285 0.318 5.206 3.314 10.46 6.872 16.024 10.639 35.829 24.263 76.438 51.76 128.713 31.324 60.712-23.73 92.416-23.963 130.477-0.969 26.792 16.186 86.418 17.381 135.086-30.642l13.671-13.491-3.839 18.82c-5.909 28.97-20.756 48.168-44.127 57.06-26.982 10.277-100.854 20.871-290.422 20.871z m-360.644-20.483c3.183 0.148 52.062 2.411 121.049 4.585 10.308 0.322 21.1 0.643 32.268 0.949 156.324 4.384 428.314 8.021 493.592-16.85 14.069-5.353 24.24-14.997 30.765-29.263-25.159 19.306-49.808 26.472-67.328 28.952-24.72 3.499-49.434-0.427-66.114-10.504-30.726-18.562-56.546-23.019-120.176 1.85-14.301 5.591-27.827 7.943-40.631 7.943-39.122 0.002-71.527-21.944-98.894-40.475-5.492-3.72-10.681-7.232-15.745-10.456-17.505-11.14-28.908 1.503-44.304 22.063-9.616 12.841-18.698 24.968-30.547 20.414-4.232-1.628-8.61-4.028-13.679-6.807-6.656-3.649-14.2-7.786-22.956-10.911-10.233-3.667-20.284-5.268-30.733-4.889-10.343 0.364-21.288 2.758-32.536 7.113-57.195 22.146-111.604 17.991-128.89 6.474-6.578-4.381-14.265-14.197-23.166-25.562-4.834-6.174-9.834-12.557-15.141-18.729-8.539-9.92-21.379-23.547-34.212-27.319-12.731-3.74-33.577-14.757-62.026-32.775-6.513 20.768-5.543 39.657 2.909 56.23 18.485 36.25 69.067 56.327 108.246 66.787 30.628 8.181 56.146 10.96 58.249 11.18z" fill="#0A0A0A" p-id="5084"></path><path d="M360.389 706.29a5.846 5.846 0 0 1-5.842-6.162l3.946-72.731a5.841 5.841 0 0 1 3.206-4.902 5.842 5.842 0 0 1 5.848 0.339l49.735 32.783 13.558-63.824a5.846 5.846 0 0 1 7.251-4.426l69.137 18.802V548.79a5.846 5.846 0 0 1 8.982-4.932l65.12 41.436-19.655-75.345a5.844 5.844 0 0 1 4.18-7.131 5.843 5.843 0 0 1 7.131 4.18l23.409 89.736a5.846 5.846 0 0 1-8.794 6.407l-68.684-43.704v54.378a5.845 5.845 0 0 1-7.38 5.641l-70.55-19.186-14.053 66.158a5.849 5.849 0 0 1-8.935 3.666l-48.388-31.895-3.394 62.564a5.84 5.84 0 0 1-5.828 5.527z" fill="#0A0A0A" p-id="5085"></path></svg>